<svg width="564" height="223" viewBox="0 0 564 223" fill="none" xmlns="http://www.w3.org/2000/svg">
<path d="M105.361 120.494H78.117C76.947 120.494 76 121.442 76 122.61V172.338C76 173.506 76.947 174.454 78.117 174.454H105.361C106.529 174.454 107.476 173.506 107.476 172.338V122.61C107.477 121.442 106.529 120.494 105.361 120.494ZM85.854 172.206C82.6 172.206 79.969 169.57 79.969 166.321C79.969 163.07 82.6 160.434 85.854 160.434C89.104 160.434 91.739 163.07 91.739 166.321C91.738 169.57 89.104 172.206 85.854 172.206Z" fill="#06435B"/>
<path d="M179.332 126.887C179.332 122.553 175.818 119.039 171.484 119.039H155.439C155.435 119.039 155.431 119.04 155.429 119.04C151.745 119.04 148.156 119.04 146.533 119.04C140.178 119.04 148.871 105.946 150.191 91.928C151.515 77.91 144.574 75 142.523 75C140.207 75 134.984 76.851 134.716 82.935C134.452 89.019 130.487 105.155 124.403 110.179C118.319 115.205 110.911 126.579 110.911 126.579V168.548C118.849 177.189 155.524 174.455 155.524 174.455H160.838C164.233 174.455 166.986 171.701 166.986 168.306C166.986 164.908 164.232 162.156 160.838 162.156H165.399C169.198 162.156 172.28 159.077 172.28 155.28C172.28 152.282 170.36 149.74 167.684 148.799H169.104C173.047 148.799 176.245 145.603 176.245 141.657C176.245 138.312 173.942 135.512 170.837 134.738H171.483C175.818 134.735 179.332 131.22 179.332 126.887Z" fill="#02C39A"/>
<path d="M17 105.565L127.785 16L238.569 105.565" stroke="#02C39A" stroke-width="14" stroke-miterlimit="10" stroke-linecap="round" stroke-linejoin="round"/>
<path d="M213.402 133.2V205H42.167V30.3108" stroke="#02C39A" stroke-width="14" stroke-miterlimit="10" stroke-linecap="round" stroke-linejoin="round"/>
<path d="M312.625 65.775L330.55 42.45H348.7L326.275 69.225L350.8 99H331.75L312.625 74.475V99H297.925V42.45H312.625V65.775ZM354.249 87.825C354.399 87.875 354.624 87.9 354.924 87.9C355.574 87.9 356.149 87.85 356.649 87.75C357.149 87.65 357.549 87.45 357.849 87.15C358.149 86.8 358.374 86.3 358.524 85.65C358.674 85 358.749 84.15 358.749 83.1V60.525H396.249V99H382.674V71.85H372.324V84.6C372.324 87.35 371.899 89.725 371.049 91.725C370.249 93.725 369.124 95.375 367.674 96.675C366.224 97.975 364.449 98.925 362.349 99.525C360.299 100.175 358.049 100.5 355.599 100.5H354.249V87.825ZM418.161 79.65C418.161 80.9 418.386 82.075 418.836 83.175C419.286 84.225 419.886 85.15 420.636 85.95C421.436 86.75 422.361 87.375 423.411 87.825C424.511 88.275 425.686 88.5 426.936 88.5C428.136 88.5 429.261 88.275 430.311 87.825C431.411 87.375 432.336 86.75 433.086 85.95C433.886 85.15 434.511 84.225 434.961 83.175C435.461 82.125 435.711 81 435.711 79.8C435.711 78.6 435.461 77.475 434.961 76.425C434.511 75.325 433.886 74.375 433.086 73.575C432.336 72.775 431.411 72.15 430.311 71.7C429.261 71.25 428.136 71.025 426.936 71.025C425.686 71.025 424.511 71.25 423.411 71.7C422.361 72.15 421.436 72.775 420.636 73.575C419.886 74.375 419.286 75.3 418.836 76.35C418.386 77.35 418.161 78.45 418.161 79.65ZM435.261 60.525H448.911V99H435.261V94.725C432.361 98.375 428.436 100.2 423.486 100.2C420.686 100.2 418.111 99.7 415.761 98.7C413.411 97.65 411.361 96.2 409.611 94.35C407.861 92.5 406.486 90.325 405.486 87.825C404.536 85.325 404.061 82.6 404.061 79.65C404.061 76.9 404.536 74.3 405.486 71.85C406.436 69.35 407.761 67.175 409.461 65.325C411.161 63.475 413.186 62.025 415.536 60.975C417.886 59.875 420.486 59.325 423.336 59.325C428.136 59.325 432.111 61 435.261 64.35V60.525ZM487.174 72.975C484.824 71.375 482.449 70.575 480.049 70.575C478.749 70.575 477.524 70.8 476.374 71.25C475.274 71.7 474.299 72.35 473.449 73.2C472.599 74 471.924 74.975 471.424 76.125C470.974 77.225 470.749 78.475 470.749 79.875C470.749 81.225 470.974 82.475 471.424 83.625C471.924 84.725 472.574 85.7 473.374 86.55C474.224 87.35 475.224 87.975 476.374 88.425C477.524 88.875 478.749 89.1 480.049 89.1C482.599 89.1 484.974 88.225 487.174 86.475V98.025C483.824 99.475 480.649 100.2 477.649 100.2C474.849 100.2 472.174 99.725 469.624 98.775C467.124 97.825 464.899 96.475 462.949 94.725C461.049 92.925 459.524 90.8 458.374 88.35C457.224 85.85 456.649 83.075 456.649 80.025C456.649 76.975 457.199 74.2 458.299 71.7C459.399 69.15 460.899 66.975 462.799 65.175C464.699 63.325 466.949 61.9 469.549 60.9C472.199 59.85 475.024 59.325 478.024 59.325C481.324 59.325 484.374 60.025 487.174 61.425V72.975ZM523.942 72.975C521.592 71.375 519.217 70.575 516.817 70.575C515.517 70.575 514.292 70.8 513.142 71.25C512.042 71.7 511.067 72.35 510.217 73.2C509.367 74 508.692 74.975 508.192 76.125C507.742 77.225 507.517 78.475 507.517 79.875C507.517 81.225 507.742 82.475 508.192 83.625C508.692 84.725 509.342 85.7 510.142 86.55C510.992 87.35 511.992 87.975 513.142 88.425C514.292 88.875 515.517 89.1 516.817 89.1C519.367 89.1 521.742 88.225 523.942 86.475V98.025C520.592 99.475 517.417 100.2 514.417 100.2C511.617 100.2 508.942 99.725 506.392 98.775C503.892 97.825 501.667 96.475 499.717 94.725C497.817 92.925 496.292 90.8 495.142 88.35C493.992 85.85 493.417 83.075 493.417 80.025C493.417 76.975 493.967 74.2 495.067 71.7C496.167 69.15 497.667 66.975 499.567 65.175C501.467 63.325 503.717 61.9 506.317 60.9C508.967 59.85 511.792 59.325 514.792 59.325C518.092 59.325 521.142 60.025 523.942 61.425V72.975ZM314.125 151.85L296.5 125.45H314.65L322.3 140.075L331.75 125.45H349.9L331.225 151.85L352.3 182H334.375L323.05 163.55L309.775 182H292L314.125 151.85ZM367.404 162.65C367.404 163.9 367.629 165.075 368.079 166.175C368.529 167.225 369.129 168.15 369.879 168.95C370.679 169.75 371.604 170.375 372.654 170.825C373.754 171.275 374.929 171.5 376.179 171.5C377.379 171.5 378.504 171.275 379.554 170.825C380.654 170.375 381.579 169.75 382.329 168.95C383.129 168.15 383.754 167.225 384.204 166.175C384.704 165.125 384.954 164 384.954 162.8C384.954 161.6 384.704 160.475 384.204 159.425C383.754 158.325 383.129 157.375 382.329 156.575C381.579 155.775 380.654 155.15 379.554 154.7C378.504 154.25 377.379 154.025 376.179 154.025C374.929 154.025 373.754 154.25 372.654 154.7C371.604 155.15 370.679 155.775 369.879 156.575C369.129 157.375 368.529 158.3 368.079 159.35C367.629 160.35 367.404 161.45 367.404 162.65ZM384.504 143.525H398.154V182H384.504V177.725C381.604 181.375 377.679 183.2 372.729 183.2C369.929 183.2 367.354 182.7 365.004 181.7C362.654 180.65 360.604 179.2 358.854 177.35C357.104 175.5 355.729 173.325 354.729 170.825C353.779 168.325 353.304 165.6 353.304 162.65C353.304 159.9 353.779 157.3 354.729 154.85C355.679 152.35 357.004 150.175 358.704 148.325C360.404 146.475 362.429 145.025 364.779 143.975C367.129 142.875 369.729 142.325 372.579 142.325C377.379 142.325 381.354 144 384.504 147.35V143.525ZM422.075 176.75L403.475 143.525H419.225L429.5 163.25L439.475 143.525H455.075L424.175 201.2H408.95L422.075 176.75ZM486.661 155.975C484.311 154.375 481.936 153.575 479.536 153.575C478.236 153.575 477.011 153.8 475.861 154.25C474.761 154.7 473.786 155.35 472.936 156.2C472.086 157 471.411 157.975 470.911 159.125C470.461 160.225 470.236 161.475 470.236 162.875C470.236 164.225 470.461 165.475 470.911 166.625C471.411 167.725 472.061 168.7 472.861 169.55C473.711 170.35 474.711 170.975 475.861 171.425C477.011 171.875 478.236 172.1 479.536 172.1C482.086 172.1 484.461 171.225 486.661 169.475V181.025C483.311 182.475 480.136 183.2 477.136 183.2C474.336 183.2 471.661 182.725 469.111 181.775C466.611 180.825 464.386 179.475 462.436 177.725C460.536 175.925 459.011 173.8 457.861 171.35C456.711 168.85 456.136 166.075 456.136 163.025C456.136 159.975 456.686 157.2 457.786 154.7C458.886 152.15 460.386 149.975 462.286 148.175C464.186 146.325 466.436 144.9 469.036 143.9C471.686 142.85 474.511 142.325 477.511 142.325C480.811 142.325 483.861 143.025 486.661 144.425V155.975Z" fill="#06435B"/>
</svg>
