<?xml version="1.0" encoding="UTF-8"?> <svg xmlns="http://www.w3.org/2000/svg" width="46" height="47" viewBox="0 0 46 47" fill="none"><g clip-path="url(#clip0_171_724)"><path d="M45.201 27.5049H0.152832V30.1221H45.201V27.5049Z" fill="black"></path><path d="M0.152832 46.0638H2.92869V43.0501H18.7114V32.7397H0.152832V46.0638ZM2.92869 35.3571H15.9355V40.4329H2.92869V35.3571Z" fill="black"></path><path d="M21.3311 43.0501H31.8V46.0638H34.6552V43.0501H45.1241V32.7397H21.3311V43.0501ZM34.6552 35.3571H42.4275V40.4329H34.6552V35.3571ZM24.1069 35.3571H31.8V40.4329H24.1069V35.3571Z" fill="black"></path><path d="M24.026 0.936035H13.3984V24.8084H24.026V0.936035ZM21.2502 22.1912H16.1743V3.63259H21.2502V22.1912Z" fill="black"></path><path d="M29.498 8.94637L34.5738 3.63259V24.8878H37.3497V8.94637L42.3463 3.63259V24.8878H45.1221V0.936035H41.2359L37.3497 5.06017V0.936035H33.4635L26.7222 7.91534V24.8878H29.498V8.94637Z" fill="black"></path><path d="M7.92642 24.8878H10.7022V22.2705V0.936035H6.81608L0.074707 7.91534V22.1912V24.8084H2.85057H7.92642V24.8878ZM2.92987 8.94637L8.00573 3.63259V22.1912H2.92987V8.94637Z" fill="black"></path></g><defs><clipPath id="clip0_171_724"><rect width="45.1276" height="45.1276" fill="white" transform="translate(0.074707 0.936035)"></rect></clipPath></defs></svg> 