<?xml version="1.0" encoding="UTF-8"?> <svg xmlns="http://www.w3.org/2000/svg" width="172" height="35" viewBox="0 0 172 35" fill="none"><g clip-path="url(#clip0_125_291)"><path d="M40.8833 12.9077C41.9476 12.9077 43.1322 12.9442 44.1596 13.6389C44.8444 14.0868 45.6497 14.9734 45.6497 16.5547C45.6497 18.2914 44.5298 20.3388 41.4571 20.3388H38.8657V25.1009H36.5981V12.9077H40.8833ZM40.9759 18.5473C41.4756 18.5473 42.1975 18.5656 42.7806 18.0354C43.1785 17.679 43.3914 17.0757 43.3914 16.5639C43.3914 16.0886 43.197 15.5127 42.7991 15.1745C42.4011 14.8363 41.7718 14.6717 41.0684 14.6717H38.8749V18.5473H40.9759Z" fill="#1D5B28"></path><path d="M47.7407 16.9558C48.3701 16.3708 49.3049 15.8589 50.7023 15.8589C52.1092 15.8589 53.0439 16.3708 53.6733 16.9558C54.6081 17.8241 55.0893 19.1768 55.0893 20.5571C55.0893 21.9373 54.6081 23.29 53.6733 24.1584C53.0439 24.7434 52.1092 25.2644 50.7023 25.2644C49.3049 25.2644 48.3608 24.7525 47.7407 24.1584C46.806 23.29 46.3154 21.9373 46.3154 20.5571C46.3154 19.1677 46.806 17.8241 47.7407 16.9558ZM49.2678 23.1164C49.4622 23.3449 49.9157 23.7745 50.7023 23.7745C51.4983 23.7745 51.9426 23.354 52.1369 23.1164C52.285 22.961 52.8218 22.248 52.8218 20.5571C52.8218 18.8661 52.285 18.1623 52.1369 17.9978C51.9426 17.7693 51.4891 17.3397 50.7023 17.3397C49.9157 17.3397 49.4622 17.7601 49.2678 17.9978C49.129 18.1623 48.5829 18.8661 48.5829 20.5571C48.5829 22.2389 49.129 22.9518 49.2678 23.1164Z" fill="#1D5B28"></path><path d="M62.2619 19.352C62.2249 18.895 62.049 18.3557 61.8084 18.0175C61.5956 17.6976 61.1606 17.3412 60.4479 17.3412C59.7445 17.3412 59.2725 17.6976 58.9856 18.1729C58.5321 18.9041 58.5043 20.0375 58.5043 20.5585C58.5043 21.3903 58.6247 22.3866 58.9856 22.9533C59.217 23.3098 59.689 23.7668 60.4479 23.7668C60.9847 23.7668 61.4289 23.5566 61.7807 23.0904C62.049 22.7157 62.2342 22.1855 62.2711 21.7194L64.1777 21.9479C64.0667 22.7797 63.6965 23.712 63.0301 24.3061C62.4748 24.7997 61.6048 25.2476 60.3831 25.2476C59.0226 25.2476 58.1341 24.7174 57.6158 24.233C56.9125 23.5749 56.2461 22.4049 56.2461 20.5585C56.2461 18.8401 56.8384 17.8073 57.3012 17.2588C57.9676 16.4728 59.0966 15.833 60.4294 15.833C61.5585 15.833 62.5025 16.226 63.0856 16.8292C63.678 17.4142 64.0389 18.3009 64.1684 19.0961L62.2619 19.352Z" fill="#1D5B28"></path><path d="M71.1853 19.352C71.1483 18.895 70.9724 18.3557 70.7411 18.0175C70.5282 17.6976 70.0932 17.3412 69.3712 17.3412C68.6679 17.3412 68.2052 17.6976 67.9182 18.1729C67.4739 18.9041 67.437 20.0375 67.437 20.5585C67.437 21.3903 67.5665 22.3866 67.9182 22.9533C68.1496 23.3098 68.6216 23.7668 69.3712 23.7668C69.9081 23.7668 70.3616 23.5566 70.704 23.0904C70.9724 22.7157 71.1483 22.1855 71.1853 21.7194L73.0915 21.9479C72.9808 22.7797 72.6109 23.712 71.9442 24.3061C71.3797 24.7997 70.5282 25.2476 69.2973 25.2476C67.9275 25.2476 67.0482 24.7174 66.53 24.233C65.8266 23.5749 65.1694 22.4049 65.1694 20.5585C65.1694 18.8401 65.7618 17.8073 66.2338 17.2588C66.8909 16.4728 68.0293 15.833 69.362 15.833C70.4911 15.833 71.4259 16.226 72.0275 16.8292C72.6202 17.4142 72.9808 18.3009 73.1101 19.0961L71.1853 19.352Z" fill="#1D5B28"></path><path d="M82.7081 22.4586C82.3846 23.5189 81.7361 24.1404 81.1998 24.5152C80.4778 24.9996 79.543 25.2647 78.5524 25.2647C77.3127 25.2647 76.0536 24.7437 75.2952 23.985C74.5917 23.2812 74.0732 22.0472 74.0732 20.594C74.0732 18.7476 74.851 17.5228 75.6929 16.8281C76.1836 16.4259 77.0998 15.8501 78.4789 15.8501C80.2278 15.8501 81.3384 16.6453 81.9311 17.4679C82.5603 18.318 82.8559 19.5062 82.8559 20.5391V20.9504H76.35C76.35 21.0509 76.3314 21.8736 76.6556 22.5317C77.137 23.528 78.0254 23.7748 78.636 23.7748C79.1266 23.7748 79.7279 23.6285 80.2371 23.1167C80.5428 22.7968 80.6628 22.4951 80.7185 22.2118L82.7081 22.4586ZM80.5885 19.5977C80.5885 19.0857 80.4685 18.5008 80.1907 18.1078C79.8486 17.6142 79.2373 17.276 78.571 17.276C77.8861 17.276 77.2941 17.6142 76.9327 18.0346C76.6463 18.3911 76.3964 18.9395 76.3964 19.5977H80.5885Z" fill="#1D5B28"></path><path d="M91.7322 16.0332V25.0913H89.6404V17.5596H87.2708C87.2158 18.7845 87.1787 19.278 87.1416 20.119C87.0859 21.0604 87.0116 23.0438 86.2067 24.1316C85.7625 24.7165 85.2069 24.9451 84.8091 25.0547C84.5778 25.1279 84.3278 25.1644 84.0686 25.1644C83.8929 25.1644 83.7079 25.1461 83.5322 25.0913V23.5283H83.7079C83.9764 23.51 84.3371 23.3729 84.5778 23.1901C85.2998 22.6234 85.3648 21.3437 85.4383 20.3291C85.5312 18.9946 85.5497 18.1995 85.559 16.9929L85.5776 16.0332H91.7322Z" fill="#1D5B28"></path><path d="M96.0166 19.2598H98.3211C98.9132 19.2598 100.07 19.3328 100.82 20.0823C101.505 20.7405 101.57 21.6636 101.57 22.1572C101.57 23.4552 101.033 24.1133 100.616 24.4515C100.468 24.5612 99.7923 25.0913 98.4875 25.0913H93.9248V16.0332H96.0073V19.2598H96.0166ZM96.0166 23.5923H97.6548C98.0526 23.5923 98.4783 23.574 98.8396 23.2724C99.0524 23.0713 99.311 22.7422 99.311 22.1664C99.311 21.6728 99.1631 21.2797 98.7561 21.0147C98.3947 20.7862 97.9412 20.7496 97.6548 20.7496H96.0166V23.5923Z" fill="#1D5B28"></path><path d="M104.605 16.0332L106.298 18.8484L108.057 16.0332H109.963L107.279 20.1281L110.463 25.0822H108.02L105.937 21.6728L103.743 25.0822H101.837L104.956 20.384L102.161 16.0332H104.605Z" fill="#1D5B28"></path><path d="M112.074 16.9558C112.703 16.3708 113.638 15.8589 115.036 15.8589C116.442 15.8589 117.377 16.3708 118.006 16.9558C118.941 17.8241 119.423 19.1768 119.423 20.5571C119.423 21.9373 118.932 23.29 118.006 24.1584C117.377 24.7434 116.442 25.2644 115.036 25.2644C113.629 25.2644 112.703 24.7525 112.074 24.1584C111.139 23.29 110.648 21.9373 110.648 20.5571C110.658 19.1677 111.139 17.8241 112.074 16.9558ZM113.601 23.1164C113.795 23.3449 114.249 23.7745 115.036 23.7745C115.831 23.7745 116.275 23.354 116.479 23.1164C116.618 22.961 117.164 22.248 117.164 20.5571C117.164 18.8661 116.627 18.1623 116.479 17.9978C116.285 17.7693 115.831 17.3397 115.036 17.3397C114.249 17.3397 113.795 17.7601 113.601 17.9978C113.462 18.1623 112.916 18.8661 112.916 20.5571C112.916 22.2389 113.462 22.9518 113.601 23.1164Z" fill="#1D5B28"></path><path d="M120.542 18.4822C120.81 17.3854 121.513 16.7821 122.013 16.4805C122.318 16.2885 123.16 15.8589 124.604 15.8589C125.502 15.8589 126.418 16.0143 127.103 16.3891C128.112 16.9375 128.362 17.7327 128.362 18.3085C128.362 18.9301 128.057 20.1184 126.493 20.292V20.3285C127.029 20.4017 127.631 20.6302 127.982 21.0049C128.307 21.3431 128.557 21.9098 128.557 22.5131C128.557 23.418 128.02 24.2224 127.335 24.6611C126.511 25.1913 125.373 25.2644 124.53 25.2644C123.679 25.2644 122.393 25.173 121.486 24.4692C120.986 24.0761 120.514 23.3997 120.375 22.5497L122.263 22.2298C122.337 22.5131 122.494 22.9427 122.716 23.1895C123.179 23.7288 123.92 23.7745 124.392 23.7745C124.854 23.7745 125.364 23.7196 125.752 23.4546C126.113 23.2078 126.289 22.8696 126.289 22.4217C126.289 22.0469 126.215 21.7453 125.9 21.4802C125.484 21.142 124.928 21.0872 124.41 21.0872H123.457V19.6979H124.41C124.771 19.6979 125.289 19.6247 125.576 19.4877C125.956 19.2957 126.168 18.9758 126.168 18.4639C126.168 18.1805 126.058 17.9064 125.789 17.6961C125.373 17.3579 124.78 17.3397 124.474 17.3397C124.058 17.3397 123.448 17.3945 122.948 17.815C122.735 17.9886 122.448 18.3268 122.356 18.8661L120.542 18.4822Z" fill="#1D5B28"></path><path d="M139.228 15.0374H133.277V17.7338H135.923C136.877 17.7338 137.793 17.807 138.728 18.4467C139.644 19.0683 140.218 19.9915 140.218 21.326C140.218 22.5691 139.755 23.4923 139.154 24.0773C138.256 24.9639 137.228 25.0918 136.155 25.0918H130.398V12.9077H139.228V15.0374ZM133.277 22.953H135.6C136.035 22.953 136.433 22.9347 136.84 22.5234C137.237 22.1303 137.293 21.6916 137.293 21.3534C137.293 20.9604 137.182 20.5765 136.84 20.2383C136.433 19.8361 135.905 19.7904 135.526 19.7904H133.277V22.953Z" fill="#1D5B28"></path><path d="M141.699 18.5465C141.986 17.3217 142.801 16.7001 143.282 16.4168C143.994 16.0055 144.948 15.8501 146.132 15.8501C147.641 15.8501 149.178 16.042 149.853 17.4497C150.214 18.1717 150.177 18.9578 150.177 19.6342V23.135C150.177 23.8662 150.288 24.5426 150.445 25.091H147.836C147.761 24.7345 147.715 24.2592 147.696 23.656C147.354 24.2592 146.53 25.2738 144.624 25.2738C143.781 25.2738 142.912 25.0636 142.32 24.5791C141.745 24.113 141.385 23.3727 141.385 22.5592C141.385 21.6543 141.783 20.5665 143.347 19.9267C144.356 19.5153 145.994 19.3783 146.734 19.3417L147.595 19.3052V19.1132C147.595 18.8664 147.577 18.3363 147.327 18.0438C146.984 17.6507 146.299 17.6416 146.03 17.6416C145.66 17.6416 145.207 17.6782 144.828 17.9067C144.596 18.0438 144.291 18.3363 144.18 18.8299L141.699 18.5465ZM146.789 20.8041C145.892 20.8773 144.994 20.9687 144.485 21.5811C144.346 21.7548 144.199 22.029 144.199 22.3946C144.199 22.7876 144.393 23.0527 144.596 23.1898C144.846 23.3817 145.225 23.4732 145.586 23.4732C146.123 23.4732 146.752 23.2446 147.114 22.815C147.169 22.7602 147.595 22.2301 147.595 21.1972V20.7219L146.789 20.8041Z" fill="#1D5B28"></path><path d="M154.944 16.0332V19.4242H157.84V16.0332H160.515V25.0822H157.84V21.2797H154.944V25.0822H152.269V16.0332H154.944Z" fill="#1D5B28"></path><path d="M165.281 16.0332V19.5156H166.003C166.78 19.5156 167.104 19.1409 167.298 18.7296C167.678 17.9343 167.659 17.3128 168.002 16.6913C168.27 16.1977 168.631 16.0697 168.862 16.0332H171.074C170.788 16.3348 170.538 16.6913 170.371 17.0112C170.084 17.5962 169.816 18.5559 169.649 18.9673C169.437 19.534 169.075 20.1006 168.159 20.1738V20.2104C168.65 20.2834 169.15 20.5302 169.529 21.0787C169.76 21.4169 169.918 21.8556 170.176 22.5503C170.426 23.2632 170.538 23.51 170.769 24.0584C170.954 24.4698 171.056 24.7165 171.361 25.0913H168.844C168.446 24.9633 168.178 24.6983 167.854 23.7751C167.604 23.0621 167.567 22.8153 167.401 22.4223L167.271 22.1024C167.002 21.426 166.641 21.2797 166.086 21.2797H165.281V25.0822H162.606V16.0332H165.281Z" fill="#1D5B28"></path><path fill-rule="evenodd" clip-rule="evenodd" d="M16.082 34.4273C7.68476 34.4273 0.854492 27.6817 0.854492 19.3957C0.854492 14.6337 3.06952 10.2515 6.92267 7.38165L7.08649 7.25504V0.572754H15.8255V4.36407C15.911 4.36407 15.9965 4.36407 16.082 4.36407C24.4791 4.36407 31.3022 11.1096 31.3022 19.4027C31.3022 27.6817 24.4719 34.4273 16.082 34.4273Z" fill="#245E2E"></path><path fill-rule="evenodd" clip-rule="evenodd" d="M11.6724 19.6346L14.8417 16.5608V14.4717L11.6724 17.5314V19.6346Z" fill="#FFCC00"></path><path fill-rule="evenodd" clip-rule="evenodd" d="M11.6724 11.8473L14.8417 8.76636V6.79688L11.6724 9.85662V11.8473Z" fill="#FFCC00"></path><path fill-rule="evenodd" clip-rule="evenodd" d="M11.6724 14.4218L14.8417 11.348V9.37842L11.6724 12.4382V14.4218Z" fill="#FFCC00"></path><path fill-rule="evenodd" clip-rule="evenodd" d="M10.7692 6.81943L10.3418 6.41849V1.54395H9.86464V5.95426L9.45157 5.54628V1.54395H8.96723V5.08908L8.54702 4.68111V1.54395H8.06982V6.19341L11.2464 9.26726V1.54395H10.7692V6.81943Z" fill="#FFCC00"></path><path fill-rule="evenodd" clip-rule="evenodd" d="M11.6724 16.9965L14.8417 13.9227V11.9531L11.6724 15.0129V16.9965Z" fill="#FFCC00"></path><path fill-rule="evenodd" clip-rule="evenodd" d="M8.06982 16.5608L11.2464 19.6346V17.5314L8.06982 14.4717V16.5608Z" fill="#FFCC00"></path><path fill-rule="evenodd" clip-rule="evenodd" d="M14.3646 4.68111L13.9443 5.08908V1.54395H13.4672V5.55332L13.0469 5.95426V1.54395H12.5698V6.41146L12.1496 6.81943V1.54395H11.6724V9.26726L14.8417 6.19341V1.54395H14.3646V4.68111Z" fill="#FFCC00"></path><path fill-rule="evenodd" clip-rule="evenodd" d="M8.06982 8.76636L11.2464 11.8473V9.85662L8.06982 6.79688V8.76636Z" fill="#FFCC00"></path><path fill-rule="evenodd" clip-rule="evenodd" d="M8.06982 11.348L11.2464 14.4218V12.4382L8.06982 9.37842V11.348Z" fill="#FFCC00"></path><path fill-rule="evenodd" clip-rule="evenodd" d="M8.06982 13.9227L11.2464 16.9965V15.0129L8.06982 11.9531V13.9227Z" fill="#FFCC00"></path><path fill-rule="evenodd" clip-rule="evenodd" d="M26.9648 15.5485H19.5861H19.2513C19.4151 15.2953 19.5078 14.9999 19.5078 14.6833C19.5078 13.776 18.7599 13.0444 17.8411 13.0444C16.9224 13.0444 16.1816 13.783 16.1816 14.6833C16.1816 15.0421 16.2955 15.3657 16.495 15.6329C16.3525 15.7244 16.2528 15.8862 16.2528 16.0691C16.2528 16.2519 16.3525 16.4137 16.495 16.5051C16.3027 16.7725 16.1816 17.103 16.1816 17.4547C16.1816 18.3621 16.9224 19.0936 17.8411 19.0936C18.7599 19.0936 19.5078 18.3621 19.5078 17.4547C19.5078 17.1382 19.4151 16.8357 19.2513 16.5896H20.6473H24.9919V16.9342H24.4221V17.4196H24.9919V17.919H24.4221V18.8404H24.9919V18.4254H25.8323V18.8404H26.3949V17.919H25.8323V17.4196H26.3949V16.9342H25.8323V16.5896H26.9648C27.1855 16.5896 27.3636 16.4067 27.3636 16.1886V15.9424C27.3636 15.7314 27.1784 15.5485 26.9648 15.5485ZM18.7029 17.4617C18.7029 17.926 18.3183 18.3059 17.8411 18.3059C17.3711 18.3059 16.9864 17.926 16.9864 17.4617C16.9864 17.293 17.0363 17.1312 17.1289 16.9975L17.3639 16.5966C17.2144 16.47 17.1218 16.28 17.1218 16.0691C17.1218 15.858 17.2144 15.6681 17.3639 15.5415L17.1289 15.1405C17.0363 15.0069 16.9864 14.8521 16.9864 14.6763C16.9864 14.2121 17.3711 13.8322 17.8411 13.8322C18.3112 13.8322 18.7029 14.2121 18.7029 14.6763C18.7029 15.021 18.304 15.8439 18.304 15.8439V16.2871C18.2969 16.2941 18.7029 17.1171 18.7029 17.4617Z" fill="#FFCC00"></path><path fill-rule="evenodd" clip-rule="evenodd" d="M5.18555 14.5498V16.5967C5.18555 18.5522 6.04734 19.8112 6.5459 20.2966C6.83792 20.578 9.78654 23.4408 9.82924 23.483C10.7481 24.3693 10.9048 24.6647 11.1113 25.1641V22.8992C11.1113 20.8804 10.0786 20.0996 9.54437 19.5862C8.30509 18.3904 7.4718 17.6026 6.8023 16.9414C5.52742 15.6823 5.18555 14.5498 5.18555 14.5498Z" fill="white"></path><path fill-rule="evenodd" clip-rule="evenodd" d="M9.54407 24.6427C8.3048 23.4399 7.47151 22.6591 6.80201 21.9979C5.52713 20.7389 5.19238 19.8877 5.19238 19.8877V21.6532C5.19238 23.6087 6.08978 24.8537 6.54561 25.3672C6.83763 25.6485 9.79331 28.5043 9.82895 28.5395C10.7477 29.4258 10.9044 29.8478 11.1109 30.3473V27.9557C11.1109 25.9369 10.0711 25.1562 9.54407 24.6427Z" fill="white"></path><path fill-rule="evenodd" clip-rule="evenodd" d="M16.082 5.32764C15.854 5.32764 15.6262 5.33467 15.3983 5.34171V6.29832C15.619 6.28426 15.847 6.27722 16.082 6.27722C23.4108 6.27722 29.3507 12.1436 29.3507 19.3886C29.3507 26.6265 23.4108 32.4929 16.082 32.4929C8.75318 32.4929 2.80603 26.6265 2.80603 19.3886C2.80603 15.3722 4.63645 11.7778 7.52097 9.37221V8.14829C4.06667 10.7157 1.8374 14.7954 1.8374 19.3886C1.8374 27.1541 8.21185 33.4495 16.082 33.4495C23.9449 33.4495 30.3194 27.1541 30.3194 19.3886C30.3194 11.623 23.9449 5.32764 16.082 5.32764Z" fill="white"></path><path fill-rule="evenodd" clip-rule="evenodd" d="M26.1519 26.7392C26.3726 26.4438 26.5792 26.1343 26.7786 25.8178V23.9326H26.1519V26.7392Z" fill="white"></path><path fill-rule="evenodd" clip-rule="evenodd" d="M27.9752 23.2429C28.0606 22.9686 28.1461 22.6943 28.2173 22.4199H26.1519V22.9193H26.4652C27.0136 22.9053 27.6333 22.8983 27.9752 23.2429Z" fill="white"></path><path d="M14.2233 22.3496H13.6606V27.9557H14.2233V22.3496Z" fill="white"></path><path fill-rule="evenodd" clip-rule="evenodd" d="M12.3718 21.274H14.2236C14.7008 21.274 15.0355 21.3724 15.2278 21.5553C15.4201 21.7382 15.5127 22.0688 15.5127 22.5401V27.7804C15.5127 28.2517 15.4272 28.5823 15.2278 28.7651C14.9358 29.0535 14.3945 29.0535 13.9458 29.0535C13.8461 29.0466 13.7464 29.0466 13.6609 29.0466V31.5295C13.8461 31.5647 14.0313 31.5998 14.2236 31.628V29.5882C15.0782 29.5882 15.6337 29.2998 15.8973 28.723V31.7616C15.9543 31.7616 16.0184 31.7616 16.0825 31.7616C16.2036 31.7616 16.3175 31.7616 16.4386 31.7546V22.6315C16.4386 22.1462 16.5383 21.8085 16.7235 21.6187C16.9087 21.4217 17.2434 21.3303 17.7135 21.3303C18.1906 21.3303 18.8958 21.2599 19.259 21.6187C19.4442 21.8085 19.5297 22.1532 19.5297 22.6315V25.3185H18.2619V22.4487H17.7135V31.6561C17.8987 31.635 18.0767 31.6069 18.2619 31.5718V25.8601H19.5297V31.2834C19.7932 31.213 20.0496 31.1286 20.306 31.0371V26.0712C20.306 25.5084 20.4413 25.0864 21.0253 24.8894L20.3843 21.4358H21.6664L21.88 25.206H22.0367L22.2503 21.4358H23.6036L22.8772 24.8894C23.4825 25.1005 23.6036 25.4662 23.6036 26.0712V29.2787C23.9811 28.9973 24.3372 28.7019 24.679 28.3783V21.4076H28.4396C28.4681 21.2388 28.4895 21.077 28.5108 20.9011H19.7077L19.8288 21.5272C19.551 21.0208 19.024 20.7675 18.2476 20.7675H17.6992C16.7662 20.7675 16.1964 21.1333 15.9828 21.8648C15.7834 21.0981 15.1922 20.7183 14.2164 20.7183H11.8091V31.009C11.9943 31.0723 12.1794 31.1356 12.3646 31.1919V21.274H12.3718ZM24.0452 25.2341L23.4398 24.6644L24.0452 21.5694V25.2341Z" fill="white"></path><path fill-rule="evenodd" clip-rule="evenodd" d="M21.6592 30.4668C21.8515 30.3683 22.0509 30.2698 22.2361 30.1643V25.9229H21.6592V30.4668Z" fill="white"></path></g><defs><clipPath id="clip0_125_291"><rect width="170.683" height="33.8546" fill="white" transform="translate(0.854492 0.572754)"></rect></clipPath></defs></svg> 