<?xml version="1.0" encoding="UTF-8"?> <svg xmlns="http://www.w3.org/2000/svg" width="80" height="29" viewBox="0 0 80 29" fill="none"><g clip-path="url(#clip0_125_335)"><path d="M5.70194 0.217773L4.34739 3.95468H23.1184L24.473 0.217773H5.70194ZM3.66969 5.82227L2.31514 9.55829H21.0862L22.4408 5.82227H3.66969ZM1.64166 11.4268L0.287109 15.1629H19.0582L20.4119 11.4268H1.64166Z" fill="#00AAFF"></path><path d="M40.1932 16.5868V16.6657C41.051 16.9827 41.8705 17.5373 42.2998 17.8934C43.6262 19.0024 44.2118 20.4676 44.2118 22.3686C44.2118 25.4981 42.573 27.7553 39.8808 28.4683C39.0613 28.7057 38.2035 28.7854 36.603 28.7854H28.4497V5.89404H35.6675C37.1501 5.89404 38.1642 5.97289 39.0613 6.2103C41.6758 6.92337 43.3924 8.74548 43.3924 11.6359C43.3924 13.1808 42.8461 14.4883 41.949 15.359C41.5589 15.755 41.0126 16.2307 40.1932 16.5868ZM32.9753 19.0024V25.0224H36.0969C37.0324 25.0224 37.8911 24.9436 38.5159 24.3493C39.1399 23.7549 39.413 23.0028 39.413 22.0124C39.413 21.2604 39.2175 20.5473 38.8274 20.0326C38.1642 19.2008 37.3448 19.0024 35.9407 19.0024H32.9753ZM32.936 15.0419H35.472C36.2522 15.0419 36.6423 15.0419 37.0324 14.9232C38.0865 14.6061 38.7497 13.6565 38.7497 12.349C38.7497 10.805 38.0473 10.131 37.0324 9.8147C36.603 9.69595 36.1745 9.65612 35.3158 9.65612H32.936V15.0419ZM51.0003 28.7854V9.73496H44.485V5.89404H62.5885L61.3013 9.73496H55.5259V28.7854H51.0003ZM63.9926 28.7854V5.89404H78.663L77.3758 9.73496H68.4798V14.8046H72.1084C75.0344 14.8046 76.5564 15.5176 77.6097 16.4283C78.4292 17.1413 79.8332 18.7252 79.8332 21.8548C79.8332 24.9436 78.3899 26.6462 77.1804 27.5178C75.7762 28.5073 74.2935 28.7854 71.289 28.7854H63.9926ZM68.4798 24.9436H71.8745C73.1617 24.9436 73.9419 24.6265 74.4882 23.9135C74.7613 23.5573 75.1514 22.9231 75.1514 21.7352C75.1514 20.5473 74.7613 19.7155 73.9811 19.1211C73.5134 18.765 72.8886 18.5675 71.8352 18.5675H68.4798V24.9436Z" fill="#0A2896"></path></g><defs><clipPath id="clip0_125_335"><rect width="79.5419" height="28.5648" fill="white" transform="translate(0.287109 0.217773)"></rect></clipPath></defs></svg> 