<svg width="134" height="100" viewBox="0 0 134 100" fill="none" xmlns="http://www.w3.org/2000/svg">
<g clip-path="url(#clip0_27_265)">
<path fill-rule="evenodd" clip-rule="evenodd" d="M78.1491 2.44078C81.3914 -0.813592 86.6482 -0.813593 89.8904 2.44078L131.402 44.1074C132.959 45.6702 133.834 47.7899 133.834 50C133.834 52.2101 132.959 54.3298 131.402 55.8926L89.8904 97.5592C86.6482 100.814 81.3914 100.814 78.1491 97.5592C74.9069 94.3048 74.9069 89.0285 78.1491 85.7741L105.488 58.3333H8.46837C3.88311 58.3333 0.166016 54.6024 0.166016 50C0.166016 45.3976 3.88311 41.6667 8.46837 41.6667H105.488L78.1491 14.2259C74.9069 10.9715 74.9069 5.69515 78.1491 2.44078Z" fill="#028090"/>
</g>
<defs>
<clipPath id="clip0_27_265">
<rect width="134" height="100" fill="white"/>
</clipPath>
</defs>
</svg>
