<svg width="200" height="200" viewBox="0 0 200 200" fill="none" xmlns="http://www.w3.org/2000/svg">
<g clip-path="url(#clip0_3676_1872)">
<path d="M188.672 115.09C188.982 114.46 189.162 113.754 189.162 113.005V106.08C189.162 101.326 185.303 97.4577 180.56 97.4577H174.89V58.7843C174.89 51.7349 169.169 46 162.137 46H38.2181C31.1863 46 25.4658 51.7353 25.4658 58.7843V97.4577H19.4353C14.6923 97.4577 10.8338 101.326 10.8338 106.08V113.005C10.8338 113.754 11.0133 114.461 11.3241 115.092C4.80867 116.86 0 122.836 0 129.92V150.557C0 154.344 3.07321 157.425 6.85146 157.425H21.0689V163.86C21.0689 166.143 22.9217 168 25.199 168H28.9023C31.1797 168 33.0324 166.143 33.0324 163.86V157.425H171.714V163.86C171.714 166.143 173.566 168 175.844 168H179.547C181.824 168 183.677 166.143 183.677 163.86V157.425H193.149C196.927 157.425 200 154.344 200 150.557V129.92C200.001 122.834 195.19 116.857 188.672 115.09ZM28.6404 58.7843C28.6404 53.4897 32.9367 49.1826 38.2181 49.1826H162.138C167.42 49.1826 171.716 53.4902 171.716 58.7843V97.0524H152.912V92.8315C152.912 90.2832 150.845 88.2101 148.303 88.2101H115.194C112.652 88.2101 110.584 90.2832 110.584 92.8315V97.0524H89.7726V92.8315C89.7726 90.2832 87.7047 88.2101 85.1633 88.2101H52.0541C49.5118 88.2101 47.4443 90.2832 47.4443 92.8315V97.0524H28.6404V58.7843ZM149.738 92.8315V97.0524H113.758V92.8315C113.758 92.0385 114.402 91.3927 115.193 91.3927H148.302C149.094 91.3927 149.738 92.0385 149.738 92.8315ZM86.5976 92.8315V97.0524H50.6185V92.8315C50.6185 92.0385 51.2622 91.3927 52.0537 91.3927H85.1628C85.9538 91.3927 86.5976 92.0385 86.5976 92.8315ZM14.0089 106.08C14.0089 103.081 16.4432 100.64 19.4358 100.64H180.561C183.553 100.64 185.988 103.081 185.988 106.08V113.005C185.988 113.859 185.296 114.553 184.444 114.553H15.553C14.7012 114.553 14.0089 113.859 14.0089 113.005V106.08ZM29.8582 163.86C29.8582 164.387 29.4296 164.817 28.9027 164.817H25.1995C24.6726 164.817 24.244 164.387 24.244 163.86V157.71H29.8582V163.86ZM180.503 163.86C180.503 164.387 180.075 164.817 179.548 164.817H175.845C175.318 164.817 174.889 164.387 174.889 163.86V157.71H180.503V163.86ZM196.827 150.556C196.827 152.589 195.178 154.242 193.15 154.242H6.85146C4.82366 154.242 3.17462 152.589 3.17462 150.556V129.919C3.17462 123.204 8.6244 117.739 15.3242 117.739H31.7626H168.238H184.676C191.376 117.739 196.826 123.203 196.826 129.919L196.827 150.556Z" fill="black" stroke="#06435B" stroke-width="5"/>
</g>
<defs>
<clipPath id="clip0_3676_1872">
<rect width="200" height="200" fill="white"/>
</clipPath>
</defs>
</svg>
