<?xml version="1.0" encoding="UTF-8"?> <svg xmlns="http://www.w3.org/2000/svg" width="312" height="243" viewBox="0 0 312 243" fill="none"> <path d="M60.8053 31.7819C73.6085 35.2125 81.2065 48.3726 77.7759 61.1758V61.1758C74.3453 73.979 61.1852 81.5769 48.382 78.1463L37.9999 75.3644L50.4232 29L60.8053 31.7819Z" fill="#02C39A"></path> <path d="M258.79 76.6562C260.226 71.3232 265.713 68.1638 271.046 69.5994L311.741 80.5546L289.352 163.726L248.656 152.771C243.323 151.335 240.164 145.848 241.6 140.515L258.79 76.6562Z" fill="#02C39A"></path> <circle cx="135" cy="200" r="19" fill="#02C39A"></circle> <path d="M25.0471 232.695C18.5865 232.695 12.1879 232.695 5.7273 232.695C6.96973 233.937 8.21216 235.18 9.45459 236.422C9.45459 212.008 9.45459 187.594 9.45459 163.181C8.21216 164.423 6.96973 165.665 5.7273 166.908C12.6849 166.908 19.8289 166.473 26.7244 166.97C32.8744 167.467 37.5336 173.555 37.5336 179.456C37.5336 181.755 37.5336 184.053 37.5336 186.414C37.5336 195.67 37.5336 204.926 37.5336 214.182C37.5336 216.17 37.5336 218.22 37.5336 220.208C37.5957 227.104 31.8805 232.508 25.0471 232.695C20.2638 232.819 20.2638 240.274 25.0471 240.149C32.3154 239.963 38.7139 236.298 42.4412 230.023C44.6154 226.42 45.0503 222.32 45.0503 218.22C45.0503 209.337 45.0503 200.516 45.0503 191.632C45.0503 183.743 46.1685 175.046 41.5715 168.15C37.9063 162.684 31.5078 159.391 24.9229 159.391C21.0092 159.391 17.1577 159.391 13.244 159.391C10.7591 159.391 8.21216 159.391 5.7273 159.391C3.67728 159.391 2 161.068 2 163.119C2 187.532 2 211.946 2 236.36C2 238.41 3.67728 240.087 5.7273 240.087C12.1879 240.087 18.5865 240.087 25.0471 240.087C29.8305 240.149 29.8305 232.695 25.0471 232.695Z" fill="black"></path> <path d="M25.0471 232.695C18.5865 232.695 12.1879 232.695 5.7273 232.695C6.96973 233.937 8.21216 235.18 9.45459 236.422C9.45459 212.008 9.45459 187.594 9.45459 163.181C8.21216 164.423 6.96973 165.665 5.7273 166.908C12.6849 166.908 19.8289 166.473 26.7244 166.97C32.8744 167.467 37.5336 173.555 37.5336 179.456C37.5336 181.755 37.5336 184.053 37.5336 186.414C37.5336 195.67 37.5336 204.926 37.5336 214.182C37.5336 216.17 37.5336 218.22 37.5336 220.208C37.5957 227.104 31.8805 232.508 25.0471 232.695ZM25.0471 232.695C20.2638 232.819 20.2638 240.274 25.0471 240.149C32.3154 239.963 38.7139 236.298 42.4412 230.023C44.6154 226.42 45.0503 222.32 45.0503 218.22C45.0503 209.337 45.0503 200.516 45.0503 191.632C45.0503 183.743 46.1685 175.046 41.5715 168.15C37.9063 162.684 31.5078 159.391 24.9229 159.391C21.0092 159.391 17.1577 159.391 13.244 159.391C10.7591 159.391 8.21216 159.391 5.7273 159.391C3.67728 159.391 2 161.068 2 163.119C2 187.532 2 211.946 2 236.36C2 238.41 3.67728 240.087 5.7273 240.087C12.1879 240.087 18.5865 240.087 25.0471 240.087C29.8305 240.149 29.8305 232.695 25.0471 232.695Z" stroke="black" stroke-width="4"></path> <path d="M41.3231 203.498C66.2339 203.498 91.1446 203.498 115.993 203.498C120.777 203.498 120.777 196.043 115.993 196.043C91.0825 196.043 66.1717 196.043 41.3231 196.043C36.4776 196.043 36.4776 203.498 41.3231 203.498Z" fill="black" stroke="black" stroke-width="4"></path> <path d="M150.657 199.77C150.471 208.343 143.762 215.052 135.189 215.239C126.616 215.425 119.907 208.095 119.72 199.77C119.534 191.197 126.864 184.488 135.189 184.302C143.762 184.116 150.471 191.508 150.657 199.77C150.781 204.554 158.236 204.554 158.112 199.77C157.863 187.097 147.862 177.096 135.189 176.847C122.516 176.599 112.514 187.532 112.266 199.77C112.017 212.443 122.951 222.445 135.189 222.693C147.862 222.942 157.863 212.008 158.112 199.77C158.236 194.987 150.781 194.987 150.657 199.77Z" fill="black"></path> <path d="M150.657 199.77C150.471 208.343 143.762 215.052 135.189 215.239C126.616 215.425 119.907 208.095 119.72 199.77C119.534 191.197 126.864 184.488 135.189 184.302C143.762 184.116 150.471 191.508 150.657 199.77ZM150.657 199.77C150.781 204.554 158.236 204.554 158.112 199.77C157.863 187.097 147.862 177.096 135.189 176.847C122.516 176.599 112.514 187.532 112.266 199.77C112.017 212.443 122.951 222.445 135.189 222.693C147.862 222.942 157.863 212.008 158.112 199.77C158.236 194.987 150.781 194.987 150.657 199.77Z" stroke="black" stroke-width="4"></path> <path d="M138.916 180.575C138.916 173.12 138.916 165.666 138.916 158.211C138.916 153.428 131.461 153.428 131.461 158.211C131.461 165.666 131.461 173.12 131.461 180.575C131.461 185.358 138.916 185.358 138.916 180.575Z" fill="black" stroke="black" stroke-width="4"></path> <path d="M106.613 124.479C106.613 135.723 106.613 146.967 106.613 158.211C106.613 160.261 108.29 161.938 110.34 161.938C126.927 161.938 143.451 161.938 160.037 161.938C162.087 161.938 163.765 160.261 163.765 158.211C163.765 151.44 163.765 144.73 163.765 137.959C163.765 133.176 156.31 133.176 156.31 137.959C156.31 144.73 156.31 151.44 156.31 158.211C157.553 156.968 158.795 155.726 160.037 154.484C143.451 154.484 126.927 154.484 110.34 154.484C111.583 155.726 112.825 156.968 114.067 158.211C114.067 146.967 114.067 135.723 114.067 124.479C114.067 119.695 106.613 119.695 106.613 124.479Z" fill="black" stroke="black" stroke-width="4"></path> <path d="M212.344 148.396C186.19 141.252 159.975 134.17 133.822 127.026C105.246 119.261 76.6079 111.495 48.032 103.668C41.1365 101.804 38.838 95.5302 40.5774 89.1316C42.3789 82.4846 44.1805 75.8997 45.982 69.2527C50.5169 52.6041 55.0517 35.8934 59.5866 19.2448C60.2078 16.9463 60.7669 14.7721 62.3821 12.9084C65.1154 9.74021 69.4018 8.74626 73.3155 9.80233C76.3595 10.6099 79.4034 11.4796 82.4474 12.2872C97.6672 16.4493 112.887 20.5494 128.045 24.7115C162.149 33.9676 196.254 43.2859 230.359 52.542C232.844 53.2253 235.329 53.9087 237.814 54.592C236.944 53.039 236.074 51.5481 235.204 49.995C227.067 79.8755 218.929 109.756 210.853 139.574C209.797 143.364 208.803 147.215 207.747 151.005C206.504 155.664 213.648 157.59 214.953 152.993C223.091 123.112 231.229 93.2317 239.304 63.4133C240.361 59.6239 241.354 55.7723 242.411 51.9829C242.97 50.0571 241.789 47.945 239.801 47.3859C213.648 40.2419 187.433 33.1601 161.28 26.0161C132.704 18.2509 104.066 10.4857 75.4898 2.65834C65.7988 0.0492313 55.6108 5.39169 52.9396 15.2069C51.5729 20.2388 50.2063 25.2706 48.8396 30.2403C44.0562 47.8829 39.2107 65.5254 34.4274 83.168C32.4395 90.3741 30.8864 97.3317 35.794 104.041C39.1486 108.638 43.932 110.315 49.0259 111.682C61.823 115.161 74.5579 118.639 87.355 122.118C123.323 131.871 159.292 141.687 195.26 151.44C200.292 152.806 205.324 154.173 210.294 155.54C215.015 156.844 217.003 149.638 212.344 148.396Z" fill="black" stroke="black" stroke-width="4"></path> <path d="M40.6397 74.9058C37.2851 73.974 33.8684 73.0421 30.5138 72.1724C28.4017 71.6133 26.2274 70.9921 24.1153 70.433C22.8729 70.0603 21.3198 69.8739 20.3259 69.0042C18.6486 67.4512 20.4501 63.4754 20.9471 61.736C22.1274 57.3254 23.3698 52.9147 24.5502 48.5041C26.4138 41.5465 28.3396 34.5889 30.2032 27.6312C31.2593 23.8418 37.223 26.6994 39.5836 27.3206C43.7457 28.4388 47.8458 29.557 52.0079 30.6752C52.1943 30.7373 52.3806 30.7994 52.567 30.8616C51.6973 29.3085 50.8276 27.8176 49.9579 26.2646C45.2988 43.348 40.7018 60.4314 36.0427 77.5149C34.8002 82.174 41.9442 84.0998 43.2488 79.5028C47.9079 62.4193 52.5049 45.398 57.164 28.3146C57.7231 26.3888 56.5428 24.2767 54.5549 23.7176C51.2003 22.7857 47.7836 21.8539 44.4291 20.9842C41.0124 20.0524 37.223 18.4994 33.682 18.2509C23.3077 17.5675 22.0653 29.1843 20.0774 36.6389C17.7168 45.2738 15.3562 53.9087 13.0577 62.5436C11.8773 66.83 12.0016 70.6815 15.1077 74.2846C17.5925 77.1422 22.7486 77.8255 26.2274 78.7573C30.3896 79.8755 34.5517 80.9937 38.6518 82.174C43.3109 83.3543 45.2367 76.1482 40.6397 74.9058Z" fill="black" stroke="black" stroke-width="4"></path> <path d="M180.289 85.4043C151.589 77.577 122.889 69.8118 94.1883 61.9845C78.6579 57.7602 63.1275 53.5359 47.5971 49.3117C42.938 48.0692 41.0122 55.2132 45.6092 56.5178C74.3094 64.3451 103.01 72.1103 131.71 79.9376C147.24 84.1619 162.771 88.3862 178.301 92.6104C182.96 93.8529 184.948 86.6468 180.289 85.4043Z" fill="black" stroke="black" stroke-width="4"></path> <path d="M237.751 134.667C231.042 132.865 224.271 131.002 217.562 129.2C218.432 130.753 219.301 132.244 220.171 133.797C225.824 112.924 231.539 92.0514 237.192 71.1785C235.639 72.0482 234.148 72.9179 232.595 73.7876C239.304 75.5891 246.076 77.4528 252.785 79.2543C251.915 77.7013 251.045 76.2103 250.176 74.6573C244.523 95.5302 238.807 116.403 233.154 137.276C231.912 141.935 239.056 143.861 240.36 139.264C246.014 118.391 251.729 97.5181 257.382 76.6452C257.941 74.7194 256.761 72.6073 254.773 72.0482C248.064 70.2467 241.292 68.383 234.583 66.5815C232.657 66.0224 230.545 67.2027 229.986 69.1906C224.333 90.0635 218.618 110.936 212.965 131.809C212.406 133.735 213.586 135.847 215.574 136.406C222.283 138.208 229.054 140.071 235.763 141.873C240.423 143.115 242.41 135.909 237.751 134.667Z" fill="black" stroke="black" stroke-width="4"></path> <path d="M275.459 158.335C268.067 156.347 260.674 154.297 253.282 152.309C250.673 151.626 248.126 150.881 245.517 150.197C240.92 148.955 238.932 144.358 240.112 140.009C244.399 124.168 248.747 108.327 253.033 92.4241C254.338 87.5164 255.705 82.671 257.009 77.7633C257.258 76.9558 257.444 76.1482 257.693 75.3406C258.811 71.1785 263.221 68.6936 267.384 69.8118C277.323 72.5451 287.262 75.2164 297.264 77.9497C296.394 76.3967 295.525 74.9058 294.655 73.3527C286.89 101.867 279.125 130.38 271.359 158.894C271.173 159.578 270.987 160.261 270.8 160.944C269.558 165.603 276.702 167.529 278.006 162.932C285.772 134.418 293.537 105.904 301.302 77.3906C301.488 76.7073 301.675 76.0239 301.861 75.3406C302.42 73.4148 301.24 71.3027 299.252 70.7436C291.859 68.7557 284.467 66.7057 277.075 64.7178C274.465 64.0345 271.918 63.289 269.309 62.6057C262.165 60.6799 254.649 64.2208 251.48 70.8057C249.182 75.527 248.374 81.3043 247.008 86.3361C244.399 95.8407 241.852 105.283 239.242 114.788C237.441 121.373 235.701 127.896 233.9 134.48C233.527 135.785 233.155 137.152 232.844 138.456C231.415 143.737 232.906 148.83 236.323 152.931C240.485 157.9 249.368 158.894 255.27 160.509C261.358 162.187 267.446 163.802 273.471 165.479C278.131 166.784 280.118 159.578 275.459 158.335Z" fill="black" stroke="black" stroke-width="4"></path> </svg> 