<?xml version="1.0" encoding="UTF-8"?> <svg xmlns="http://www.w3.org/2000/svg" width="500" height="500" viewBox="0 0 500 500" fill="none"> <circle cx="359" cy="359" r="110" fill="#02C39A"></circle> <line x1="88.0637" y1="211.064" x2="297.064" y2="211.953" stroke="#02C39A" stroke-width="30" stroke-linecap="round"></line> <line x1="88.0637" y1="275.064" x2="297.064" y2="275.953" stroke="#02C39A" stroke-width="30" stroke-linecap="round"></line> <line x1="88.0637" y1="335.064" x2="297.064" y2="335.953" stroke="#02C39A" stroke-width="30" stroke-linecap="round"></line> <path d="M375 219.672V87.25L287.719 0H20C8.9543 0 0 8.9543 0 20V480C0 491.046 8.95431 500 20 500H375V499.078C445.297 491.266 499.969 431.75 500 359.375C499.969 286.969 445.297 227.438 375 219.672ZM281.219 37.7031L337.281 93.75H281.219V37.7031ZM31.25 468.75V31.2188H250V104.984C250 116.03 258.954 124.984 270 124.984H343.75V219.672C316.375 222.703 291.375 233.578 271.062 250H78.125C69.4956 250 62.5 256.996 62.5 265.625V265.625C62.5 274.254 69.4956 281.25 78.125 281.25H242.453C236.016 290.875 230.844 301.391 226.922 312.5H78.125C69.4956 312.5 62.5 319.496 62.5 328.125V328.125C62.5 336.754 69.4956 343.75 78.125 343.75H219.672C219.094 348.891 218.75 354.078 218.75 359.375C218.75 403.578 239.188 442.984 271.078 468.75H31.25ZM359.375 466.922C299.984 466.781 251.938 418.734 251.797 359.375C251.938 299.984 299.984 251.938 359.375 251.797C418.734 251.938 466.781 299.984 466.922 359.375C466.781 418.734 418.734 466.781 359.375 466.922ZM312.5 203.125C312.5 194.496 305.504 187.5 296.875 187.5H78.125C69.4956 187.5 62.5 194.496 62.5 203.125V203.125C62.5 211.754 69.4956 218.75 78.125 218.75H296.875C305.504 218.75 312.5 211.754 312.5 203.125V203.125Z" fill="black"></path> <path d="M295.392 373.517C287.582 365.707 287.582 353.043 295.392 345.233L298.358 342.267C306.168 334.457 318.832 334.457 326.642 342.267L343.75 359.375L392.108 311.017C399.918 303.207 412.582 303.207 420.392 311.017L423.358 313.983C431.168 321.793 431.168 334.457 423.358 342.267L343.75 421.875L295.392 373.517Z" fill="black"></path> </svg> 