<svg width="200" height="200" viewBox="0 0 200 200" fill="none" xmlns="http://www.w3.org/2000/svg">
<g clip-path="url(#clip0_3676_1881)">
<path fill-rule="evenodd" clip-rule="evenodd" d="M69.9627 40.5649C67.9072 38.5095 67.9072 35.177 69.9627 33.1216L82.4046 20.6797C84.4599 18.6243 87.7923 18.6243 89.8477 20.6797C91.9032 22.7351 91.9032 26.0676 89.8477 28.123L86.3907 31.5801H182.031L178.574 28.123C176.518 26.0676 176.518 22.7351 178.574 20.6797C180.628 18.6243 183.961 18.6243 186.017 20.6797L198.459 33.1216C200.514 35.177 200.514 38.5095 198.459 40.5649L186.017 53.0068C183.961 55.0621 180.628 55.0621 178.574 53.0068C176.518 50.9514 176.518 47.6189 178.574 45.5635L182.031 42.1064H86.3907L89.8477 45.5635C91.9032 47.6189 91.9032 50.9514 89.8477 53.0068C87.7923 55.0621 84.4599 55.0621 82.4046 53.0068L69.9627 40.5649Z" fill="#06435B"/>
<path fill-rule="evenodd" clip-rule="evenodd" d="M40.161 198.52C38.3281 200.494 35.3561 200.494 33.5231 198.52L22.4274 186.576C20.5944 184.603 20.5944 181.403 22.4274 179.43C24.2604 177.457 27.2323 177.457 29.0652 179.43L32.1484 182.749V90.9348L29.0652 94.2536C27.2323 96.2268 24.2604 96.2268 22.4274 94.2536C20.5944 92.2805 20.5944 89.0813 22.4274 87.1082L33.5231 75.164C35.3561 73.1908 38.328 73.1908 40.161 75.164L51.2568 87.1082C53.0898 89.0813 53.0898 92.2805 51.2568 94.2536C49.4238 96.2268 46.4519 96.2268 44.6189 94.2536L41.5358 90.9348V182.749L44.6189 179.43C46.4519 177.457 49.4238 177.457 51.2568 179.43C53.0898 181.403 53.0898 184.603 51.2568 186.576L40.161 198.52Z" fill="#06435B"/>
<mask id="path-3-inside-1_3676_1881" fill="white">
<rect x="74" y="74" width="126" height="126" rx="5"/>
</mask>
<rect x="74" y="74" width="126" height="126" rx="5" stroke="#06435B" stroke-width="18" mask="url(#path-3-inside-1_3676_1881)"/>
</g>
<defs>
<clipPath id="clip0_3676_1881">
<rect width="200" height="200" fill="white"/>
</clipPath>
</defs>
</svg>
