<svg width="300" height="300" viewBox="0 0 300 300" fill="none" xmlns="http://www.w3.org/2000/svg">
<path d="M250 37.5H50C29.2906 37.5 12.5 54.2906 12.5 75V225C12.5 245.709 29.2906 262.5 50 262.5H250C270.709 262.5 287.5 245.709 287.5 225V75C287.5 54.2906 270.709 37.5 250 37.5ZM250 62.5C251.434 62.5 252.791 62.7906 254.072 63.2344L150 146.491L45.9281 63.2344C47.2125 62.7906 48.5656 62.5 50 62.5H250ZM250 237.5H50C43.0938 237.5 37.5 231.906 37.5 225V88.5094L142.191 172.259C144.472 174.088 147.238 175 150 175C152.762 175 155.528 174.088 157.809 172.259L262.5 88.5094V225C262.5 231.906 256.906 237.5 250 237.5Z" fill="white"/>
</svg>
