<svg width="300" height="300" viewBox="0 0 300 300" fill="none" xmlns="http://www.w3.org/2000/svg">
<path d="M214.834 189.889C213.9 190.823 212.954 191.758 212.019 192.669C205.707 198.889 199.846 204.716 195.127 210.254C248.342 216.519 276.923 232.939 276.923 242.308C276.923 254.066 232.119 276.923 150 276.923C67.8807 276.923 23.0769 254.066 23.0769 242.308C23.0769 232.939 51.6576 216.519 104.873 210.254C100.142 204.716 94.2807 198.889 87.9807 192.669C87.0576 191.758 86.1114 190.823 85.1653 189.889C37.223 198.081 0 215.723 0 242.308C0 280.177 75.4614 300 150 300C224.538 300 300 280.177 300 242.308C300 215.723 262.777 198.081 214.834 189.889Z" fill="#02C39A"/>
<path d="M150 0C99.023 0 57.6922 41.3307 57.6922 92.3076C57.6922 161.538 138.461 184.615 138.461 230.769C138.461 237.138 143.631 242.307 150 242.307C156.369 242.307 161.538 237.138 161.538 230.769C161.538 184.615 242.307 161.538 242.307 92.3076C242.307 41.3307 200.977 0 150 0ZM150 115.384C137.25 115.384 126.923 105.058 126.923 92.3076C126.923 79.5576 137.25 69.2307 150 69.2307C162.75 69.2307 173.077 79.5576 173.077 92.3076C173.077 105.058 162.75 115.384 150 115.384Z" fill="#02C39A"/>
</svg>
