<?xml version="1.0" encoding="UTF-8"?> <svg xmlns="http://www.w3.org/2000/svg" width="321" height="318" viewBox="0 0 321 318" fill="none"> <path d="M164.25 314C161.75 314 159.25 312.183 159.25 309.155V83.2397C159.25 80.817 161.125 79 164.25 79C167.375 79 169.25 80.817 169.25 83.2397V309.155C169.25 311.577 166.75 314 164.25 314Z" fill="#02C39A"></path> <path d="M238.217 250.874H82.7826C80.3913 250.874 78 248.999 78 245.874C78 242.75 79.7935 240.875 82.7826 240.875H238.217C240.609 240.875 243 242.75 243 245.874C243 248.999 240.609 250.874 238.217 250.874Z" fill="#02C39A"></path> <path d="M238.217 184.624H82.7826C80.3913 184.624 78 182.749 78 179.624C78 176.499 80.3913 175.249 82.7826 175.249H238.217C240.609 175.249 243 177.124 243 180.249C242.402 182.749 240.609 184.624 238.217 184.624Z" fill="#02C39A"></path> <path d="M293.75 308.28H293.125C290.625 298.28 283.75 290.78 274.375 287.655L265 285.78L264.375 285.155L263.75 284.53L263.125 283.905L262.5 283.28L261.875 282.655L261.25 282.03L260.625 281.405L260 280.78C260 280.78 259.375 280.78 259.375 280.155L258.75 279.53C258.75 279.53 258.125 279.53 258.125 278.905C258.125 278.905 257.5 278.905 257.5 278.28C257.5 278.28 256.875 278.28 256.875 277.655C256.875 277.655 256.25 277.655 256.25 277.03C256.25 277.03 255.625 277.03 255.625 276.405C255.625 276.405 255 276.405 255 275.78H254.375C254.375 275.78 253.75 275.78 253.75 275.155H253.125H252.5H251.875H251.25H250.625C250 275.155 250 275.155 249.375 275.155H248.75C248.125 275.155 248.125 275.155 247.5 275.155H246.875C246.25 275.155 246.25 275.155 245.625 275.155H245C244.375 275.155 243.75 275.155 243.125 275.155C240 275.155 237.5 275.78 235 276.405C225.625 278.905 217.5 285.78 213.75 295.155C213.125 295.155 213.125 295.78 212.5 295.78C212.5 295.78 212.5 295.78 211.875 295.78C211.875 295.78 211.25 295.78 211.25 296.405C211.25 296.405 211.25 296.405 210.625 296.405C210.625 296.405 210 296.405 210 297.03C210 297.03 210 297.03 209.375 297.03L208.75 297.655C208.125 297.655 208.125 298.28 207.5 298.28L206.875 298.905L206.25 299.53C206.25 299.53 206.25 299.53 206.25 300.155L205.625 300.78C205.625 300.78 205.625 300.78 205.625 301.405L205 302.03C205 302.655 204.375 302.655 204.375 303.28L203.75 303.905C203.75 303.905 203.75 303.905 203.75 304.53C203.75 304.53 203.75 305.155 203.125 305.155C203.125 305.155 203.125 305.155 203.125 305.78V306.405C203.125 306.405 203.125 306.405 203.125 307.03H195.625H130H122.5C122.5 307.03 122.5 307.03 122.5 306.405V305.78V305.155C122.5 305.155 122.5 304.53 121.875 304.53C121.875 304.53 121.875 304.53 121.875 303.905C121.875 303.905 121.875 303.28 121.25 303.28C121.25 302.655 120.625 302.655 120.625 302.03L120 301.405C120 301.405 120 301.405 120 300.78L119.375 300.155C119.375 300.155 119.375 300.155 118.75 299.53L118.125 298.905C118.125 298.905 118.125 298.905 117.5 298.28L116.875 297.655C116.25 297.655 116.25 297.03 115.625 297.03C115.625 297.03 115.625 297.03 115 297.03L114.375 296.405C114.375 296.405 114.375 296.405 113.75 296.405C113.75 296.405 113.125 296.405 113.125 295.78C113.125 295.78 113.125 295.78 112.5 295.78C112.5 295.78 111.875 295.78 111.875 295.155C111.875 295.155 111.875 295.155 111.25 295.155C110.625 295.155 110.625 294.53 110 294.53C105 282.655 93.1254 274.53 80.0004 274.53C79.3754 274.53 78.7504 274.53 78.1254 274.53H77.5004C76.8754 274.53 76.8754 274.53 76.2504 274.53H75.6254C75.0004 274.53 75.0004 274.53 74.3754 274.53H73.7504C73.1254 274.53 73.1254 274.53 72.5004 274.53H71.8754H71.2504H70.6254H70.0004H69.3754C69.3754 274.53 68.7504 274.53 68.7504 275.155C68.7504 275.155 68.1254 275.155 68.1254 275.78C68.1254 275.78 67.5004 275.78 67.5004 276.405C67.5004 276.405 66.8754 276.405 66.8754 277.03C66.8754 277.03 66.2504 277.03 66.2504 277.655C66.2504 277.655 65.6254 277.655 65.6254 278.28C65.6254 278.28 65.0004 278.28 65.0004 278.905C65.0004 278.905 64.3754 278.905 64.3754 279.53L63.7504 280.155C63.7504 280.155 63.1254 280.155 63.1254 280.78L62.5004 281.405L61.8754 282.03L61.2504 282.655L60.6254 283.28L60.0004 283.905L59.3754 284.53L58.7504 285.155L58.1254 285.78L48.7504 287.655C39.3754 290.155 32.5004 298.28 30.0004 308.28H29.3754C22.5004 308.28 21.8754 317.655 29.3754 317.655H297.5C301.875 317.655 301.25 308.28 293.75 308.28ZM210 308.28L210.625 307.655C210.625 307.655 210.625 307.03 211.25 307.03L211.875 306.405L212.5 305.78L213.125 305.155C213.125 305.155 213.75 305.155 213.75 304.53C213.75 304.53 213.75 304.53 214.375 304.53H215C215 304.53 215 304.53 215.625 304.53C216.25 304.53 216.25 304.53 216.875 303.905C218.125 303.28 219.375 302.655 220 300.78C223.125 291.405 231.875 285.155 241.875 285.155C249.375 285.155 256.25 288.905 260.625 294.53C261.875 295.78 263.125 296.405 265 296.405C265.625 296.405 265.625 296.405 266.25 296.405H266.875H267.5H268.125C268.75 296.405 268.75 296.405 269.375 296.405C275 297.03 281.25 301.405 283.75 308.905L210 308.28ZM50.6254 296.405C51.2504 296.405 51.2504 296.405 51.8754 296.405H52.5004H53.1254H53.7504C54.3754 296.405 54.3754 296.405 55.0004 296.405C56.8754 296.405 58.1254 295.78 59.3754 294.53C63.7504 288.28 70.6254 285.155 78.1254 285.155C88.1254 285.155 96.8754 291.405 100 300.78C100 301.405 100 301.405 100.625 302.03C101.25 302.655 101.875 303.905 103.125 303.905C103.75 303.905 103.75 303.905 104.375 304.53C104.375 304.53 104.375 304.53 105 304.53H105.625C105.625 304.53 105.625 304.53 106.25 304.53C106.25 304.53 106.875 304.53 106.875 305.155L107.5 305.78L108.125 306.405L108.75 307.03C108.75 307.03 108.75 307.655 109.375 307.655L110 308.28H36.2504C38.7504 300.78 44.3754 297.03 50.6254 296.405Z" fill="black"></path> <path d="M78.7503 280.156C76.2503 280.156 73.7503 278.281 73.7503 275.156V155.781C73.7503 154.531 74.3753 153.281 75.0003 152.656L156.25 73.2813C158.125 71.4062 161.25 71.4062 163.125 73.2813C165 75.1563 165 78.2813 163.125 80.1563L83.7503 157.656V275.156C83.7503 277.656 81.2503 280.156 78.7503 280.156Z" fill="black"></path> <path d="M241.25 280.156C238.75 280.156 236.25 278.281 236.25 275.156V157.656L156.875 79.5308C155 77.6558 155 74.5308 156.875 72.6558C158.75 70.7808 161.875 70.7808 163.75 72.6558L245 152.031C245.625 152.656 246.25 153.906 246.25 155.156V274.531C245.625 277.656 243.75 280.156 241.25 280.156Z" fill="black"></path> <path d="M160 317.03C157.5 317.03 155 315.155 155 312.03V78.9053C155 76.4053 156.875 74.5303 160 74.5303C163.125 74.5303 165 76.4053 165 78.9053V312.03C165 314.53 162.5 317.03 160 317.03Z" fill="black"></path> <path d="M241.25 246.405H78.7503C76.2503 246.405 73.7503 244.53 73.7503 241.405C73.7503 238.28 75.6253 236.405 78.7503 236.405H241.25C243.75 236.405 246.25 238.28 246.25 241.405C246.25 244.53 243.75 246.405 241.25 246.405Z" fill="black"></path> <path d="M241.25 180.155H78.7503C76.2503 180.155 73.7503 178.28 73.7503 175.155C73.7503 172.03 76.2503 170.78 78.7503 170.78H241.25C243.75 170.78 246.25 172.655 246.25 175.78C245.625 178.28 243.75 180.155 241.25 180.155Z" fill="black"></path> <path d="M266.25 293.905C263.75 293.905 261.25 292.03 261.25 288.905V145.155C261.25 142.655 263.125 140.155 266.25 140.155C269.375 140.155 271.25 142.03 271.25 145.155V289.53C270.625 292.03 268.75 293.905 266.25 293.905Z" fill="black"></path> <path d="M283.75 167.657C282.5 167.657 281.25 167.032 280.625 166.407L156.875 40.1567C155 38.2817 155 35.1567 156.875 33.2817C158.75 31.4067 161.875 31.4067 163.75 33.2817L287.5 158.907C289.375 160.782 289.375 163.907 287.5 165.782C286.25 167.032 285 167.657 283.75 167.657Z" fill="black"></path> <path d="M315 167.656C313.75 167.656 312.5 167.031 311.875 166.406L156.875 8.28125C155 6.40625 155 3.28125 156.875 1.40625C158.75 -0.46875 161.875 -0.46875 163.75 1.40625L318.75 158.906C320.625 160.781 320.625 163.906 318.75 165.781C317.5 167.031 316.25 167.656 315 167.656Z" fill="black"></path> <path d="M36.2497 167.657C34.9997 167.657 33.7497 167.032 33.1247 166.407C31.2497 164.532 31.2497 161.407 33.1247 159.532L156.875 33.9072C158.75 32.0322 161.875 32.0322 163.75 33.9072C165.625 35.7822 165.625 38.9072 163.75 40.7822L39.3747 165.782C38.7497 167.032 37.4997 167.657 36.2497 167.657Z" fill="black"></path> <path d="M4.99973 167.657C3.74973 167.657 2.49973 167.032 1.87473 166.407C-0.000274677 164.532 -0.000274677 161.407 1.87473 159.532L156.875 2.03174C158.75 0.156738 161.875 0.156738 163.75 2.03174C165.625 3.90674 165.625 7.03174 163.75 8.90674L8.12473 165.782C7.49973 167.032 6.24973 167.657 4.99973 167.657Z" fill="black"></path> <path d="M53.7503 293.906C51.2503 293.906 48.7503 292.031 48.7503 288.906V233.906C48.7503 231.406 50.6253 228.906 53.7503 228.906C56.8753 228.906 58.7503 230.781 58.7503 233.906V289.531C58.7503 292.031 56.2503 293.906 53.7503 293.906Z" fill="black"></path> <path d="M53.7503 202.657C51.2503 202.657 48.7503 200.782 48.7503 197.657V144.532C48.7503 142.032 50.6253 139.532 53.7503 139.532C56.8753 139.532 58.7503 141.407 58.7503 144.532V197.657C58.7503 200.782 56.2503 202.657 53.7503 202.657Z" fill="black"></path> <path d="M53.7503 117.032C51.2503 117.032 48.7503 115.157 48.7503 112.032V56.4067C48.7503 53.9067 50.6253 51.4067 53.7503 51.4067C56.8753 51.4067 58.7503 53.2817 58.7503 56.4067V112.032C58.7503 115.157 56.2503 117.032 53.7503 117.032Z" fill="black"></path> <path d="M82.4994 88.9067C79.9994 88.9067 77.4994 87.0317 77.4994 83.9067V56.4067C77.4994 53.9067 79.3744 51.4067 82.4994 51.4067C85.6244 51.4067 87.4994 53.2817 87.4994 56.4067V83.9067C86.8744 86.4067 84.9994 88.9067 82.4994 88.9067Z" fill="black"></path> <path d="M82.5003 61.4072H53.7503C51.2503 61.4072 48.7503 59.5322 48.7503 56.4072C48.7503 53.2822 51.2503 52.0322 53.7503 52.0322H82.5003C85.0003 52.0322 87.5003 53.9072 87.5003 57.0322C87.5003 60.1572 85.0003 61.4072 82.5003 61.4072Z" fill="black"></path> <path d="M36.25 167.657H5C2.5 167.657 0 165.782 0 162.657C0 159.532 1.875 157.657 5 157.657H36.25C38.75 157.657 41.25 159.532 41.25 162.657C41.25 165.782 38.75 167.657 36.25 167.657Z" fill="black"></path> <path d="M315.001 167.657H283.751C281.251 167.657 278.751 165.782 278.751 162.657C278.751 159.532 280.626 157.657 283.751 157.657H315.001C317.501 157.657 320.001 159.532 320.001 162.657C320.001 165.782 317.501 167.657 315.001 167.657Z" fill="black"></path> <path d="M59 61H78V87.5L59 104V61Z" fill="#02C39A"></path> </svg> 