<svg width="30" height="30" viewBox="0 0 30 30" fill="none" xmlns="http://www.w3.org/2000/svg">
<g clip-path="url(#clip0_7560_72910)">
<path fill-rule="evenodd" clip-rule="evenodd" d="M15 2.72727C8.22196 2.72727 2.72727 8.22196 2.72727 15C2.72727 21.778 8.22196 27.2727 15 27.2727C21.778 27.2727 27.2727 21.778 27.2727 15C27.2727 8.22196 21.778 2.72727 15 2.72727ZM0 15C0 6.71573 6.71573 0 15 0C23.2843 0 30 6.71573 30 15C30 23.2843 23.2843 30 15 30C6.71573 30 0 23.2843 0 15Z" fill="#02C39A"/>
<path fill-rule="evenodd" clip-rule="evenodd" d="M15 13.6364C15.7531 13.6364 16.3636 14.2469 16.3636 15V20.4545C16.3636 21.2077 15.7531 21.8182 15 21.8182C14.2469 21.8182 13.6364 21.2077 13.6364 20.4545V15C13.6364 14.2469 14.2469 13.6364 15 13.6364Z" fill="#02C39A"/>
<path fill-rule="evenodd" clip-rule="evenodd" d="M13.6364 9.54545C13.6364 8.79234 14.2469 8.18182 15 8.18182H15.0136C15.7668 8.18182 16.3773 8.79234 16.3773 9.54545C16.3773 10.2986 15.7668 10.9091 15.0136 10.9091H15C14.2469 10.9091 13.6364 10.2986 13.6364 9.54545Z" fill="#02C39A"/>
</g>
<defs>
<clipPath id="clip0_7560_72910">
<rect width="30" height="30" fill="white"/>
</clipPath>
</defs>
</svg>
