<svg width="300" height="300" viewBox="0 0 300 300" fill="none" xmlns="http://www.w3.org/2000/svg">
<path d="M217.778 0H83.3333C37.7778 0 1.11111 37.7778 0 83.3333V217.778C0 263.333 37.7778 300 83.3333 300H217.778C263.333 300 300 262.222 300 217.778V82.2222C300 36.6667 263.333 0 217.778 0ZM274.444 216.667C274.444 247.778 248.889 272.222 218.889 272.222H83.3333C52.2222 272.222 27.7778 246.667 27.7778 216.667V82.2222C27.7778 51.1111 53.3333 26.6667 83.3333 26.6667H217.778C248.889 26.6667 273.333 52.2222 273.333 82.2222L274.444 216.667C274.444 216.667 273.333 216.667 274.444 216.667Z" fill="white"/>
<path d="M150 72.2222C106.667 72.2222 72.2222 106.667 72.2222 150C72.2222 193.333 106.667 227.778 150 227.778C193.333 227.778 227.778 193.333 227.778 150C227.778 106.667 193.333 72.2222 150 72.2222ZM150 200C122.222 200 99.9999 177.778 99.9999 150C99.9999 122.222 122.222 98.8888 151.111 98.8888C180 98.8888 202.222 121.111 202.222 150C202.222 178.889 178.889 200 150 200Z" fill="white"/>
<path d="M231.111 50C220 50 212.222 58.8889 212.222 70C212.222 81.1111 221.111 88.8889 231.111 88.8889C242.222 88.8889 250 80 250 68.8889C250 63.3333 247.777 58.8889 244.444 55.5556C241.111 52.2222 235.555 50 231.111 50Z" fill="white"/>
</svg>
