<svg width="300" height="300" viewBox="0 0 300 300" fill="none" xmlns="http://www.w3.org/2000/svg">
<g clip-path="url(#clip0)">
<path d="M135.234 211.311C111.977 208.885 91.0072 203.158 73.0539 189.116C70.8262 187.369 68.5263 185.685 66.4934 183.734C58.6353 176.187 57.8435 167.543 64.0615 158.636C69.3809 151.013 78.3104 148.974 87.5918 153.351C89.3891 154.199 91.1014 155.258 92.7416 156.395C126.201 179.385 172.165 180.02 205.749 157.429C209.077 154.878 212.633 152.798 216.756 151.736C224.771 149.678 232.246 152.622 236.547 159.635C241.461 167.644 241.398 175.461 235.344 181.679C226.056 191.212 214.886 198.108 202.475 202.922C190.74 207.472 177.886 209.762 165.164 211.283C167.084 213.372 167.989 214.4 169.189 215.606C186.464 232.963 203.814 250.247 221.032 267.656C226.898 273.588 228.123 280.944 224.894 287.844C221.362 295.384 213.457 300.346 205.705 299.815C200.794 299.475 196.964 297.031 193.562 293.603C180.526 280.485 167.244 267.609 154.472 254.243C150.755 250.357 148.967 251.092 145.687 254.466C132.573 267.967 119.244 281.261 105.837 294.479C99.8173 300.415 92.6536 301.483 85.6721 298.093C78.2507 294.495 73.5283 286.92 73.8928 279.307C74.1441 274.157 76.6766 270.223 80.2113 266.695C97.3069 249.624 114.355 232.51 131.41 215.411C132.538 214.274 133.591 213.067 135.234 211.311Z" fill="#ED812B"/>
<path d="M149.401 151.849C107.911 151.708 73.8895 117.312 74.1314 75.7564C74.3702 33.7417 108.414 -0.116321 150.312 -6.77337e-05C192.295 0.113044 225.993 34.4581 225.783 76.9095C225.569 118.381 191.312 151.994 149.401 151.849ZM187.108 75.8569C187.036 55.2235 170.603 38.7972 150.01 38.7783C129.245 38.7563 112.665 55.4811 112.825 76.3031C112.979 96.8579 129.553 113.168 150.202 113.093C170.788 113.02 187.177 96.4872 187.108 75.8569Z" fill="#ED812B"/>
</g>
<defs>
<clipPath id="clip0">
<rect width="300" height="300" fill="white"/>
</clipPath>
</defs>
</svg>
