<svg width="300" height="300" viewBox="0 0 300 300" fill="none" xmlns="http://www.w3.org/2000/svg">
<path d="M224.672 194.199C219.377 191.095 212.868 191.16 207.599 194.291L180.912 210.191C174.938 213.751 167.477 213.334 161.999 209.056C152.529 201.66 137.282 189.217 124.017 175.952C110.751 162.687 98.3081 147.439 90.9125 137.969C86.6342 132.491 86.2169 125.03 89.7777 119.057L105.678 92.3697C108.821 87.1002 108.847 80.5394 105.743 75.2438L66.5866 8.35732C62.7909 1.88781 55.2519 -1.29478 47.9606 0.492166C40.8781 2.21389 31.6825 6.41386 22.0434 16.066C-8.13897 46.2483 -24.1693 97.1567 89.3342 210.66C202.838 324.164 253.733 308.146 283.928 277.951C293.594 268.286 297.78 259.077 299.515 251.982C301.276 244.703 298.146 237.216 291.689 233.434C275.568 224.004 240.794 203.643 224.672 194.199Z" fill="white"/>
</svg>
