<svg width="276" height="276" viewBox="0 0 276 276" fill="none" xmlns="http://www.w3.org/2000/svg">
<g clip-path="url(#clip0)">
<path fill-rule="evenodd" clip-rule="evenodd" d="M146.361 5.44555L181.782 80.6496C183.084 83.4903 185.717 85.4947 188.802 85.9935L268.008 98.053C271.588 98.7473 274.497 101.355 275.577 104.838C276.657 108.322 275.734 112.118 273.175 114.716L215.861 173.254C213.648 175.549 212.653 178.757 213.18 181.901L226.71 264.558C227.448 268.111 226.079 271.773 223.192 273.971C220.304 276.169 216.411 276.514 213.182 274.856L142.339 235.831C139.64 234.335 136.361 234.335 133.662 235.831L62.8184 274.856C59.5898 276.514 55.6963 276.169 52.8087 273.971C49.9212 271.773 48.5528 268.111 49.291 264.558L62.8209 181.901C63.3473 178.757 62.3526 175.549 60.1395 173.254L2.82597 114.716C0.266452 112.118 -0.656668 108.322 0.423594 104.839C1.50386 101.355 4.41243 98.7477 7.99302 98.0533L87.1984 85.9935C90.2832 85.4947 92.9162 83.4904 94.2181 80.6496L129.64 5.44555C131.103 2.13532 134.381 0 138 0C141.619 0 144.898 2.13532 146.361 5.44555Z" fill="#F6AB27"/>
<path fill-rule="evenodd" clip-rule="evenodd" d="M81.6028 184.975C83.1012 175.85 80.1799 166.556 73.7307 159.929L28.8862 114.125L90.0652 104.813C99.4146 103.362 107.427 97.3493 111.433 88.7778L138 32.3691L164.558 88.7616C168.563 97.3401 176.579 103.359 185.934 104.812L247.113 114.125L202.26 159.938C195.814 166.568 192.896 175.863 194.397 184.986L204.793 248.503L151.523 219.159C143.108 214.513 132.898 214.512 124.482 219.154L71.2073 248.503L81.6028 184.975Z" fill="#F4CD1E"/>
</g>
<defs>
<clipPath id="clip0">
<rect width="276" height="276" fill="white"/>
</clipPath>
</defs>
</svg>
