<?xml version="1.0" encoding="UTF-8"?> <svg xmlns="http://www.w3.org/2000/svg" width="300" height="300" viewBox="0 0 300 300" fill="none"> <circle cx="150.5" cy="149.5" r="63.5" fill="#02C39A"></circle> <path d="M149.936 214.898C114.152 214.898 85.0371 185.789 85.0371 150C85.0371 114.211 114.152 85.1016 149.936 85.1016C185.719 85.1016 214.834 114.217 214.834 150C214.834 185.783 185.719 214.898 149.936 214.898ZM149.936 94.1602C119.145 94.1602 94.0957 119.215 94.0957 150.006C94.0957 180.797 119.145 205.846 149.936 205.846C180.727 205.846 205.775 180.797 205.775 150.006C205.775 119.215 180.727 94.1602 149.936 94.1602Z" fill="black"></path> <path d="M149.936 214.705C131.367 214.705 116.824 186.281 116.824 150.006C116.824 113.725 131.367 85.3008 149.936 85.3008C168.504 85.3008 183.047 113.725 183.047 150.006C183.047 186.281 168.504 214.705 149.936 214.705ZM149.936 94.3535C138.557 94.3535 125.883 117.211 125.883 150.006C125.883 182.801 138.557 205.652 149.936 205.652C161.314 205.652 173.988 182.801 173.988 150.006C173.988 117.211 161.314 94.3535 149.936 94.3535Z" fill="black"></path> <path d="M149.936 212.027C147.434 212.027 145.406 210 145.406 207.498V92.5078C145.406 90.0059 147.434 87.9785 149.936 87.9785C152.438 87.9785 154.465 90.0059 154.465 92.5078V207.498C154.465 210 152.438 212.027 149.936 212.027Z" fill="black"></path> <path d="M150.709 299.414C149.332 299.414 147.855 299.244 146.385 298.77C18.1113 256.957 32.6543 84.9668 34.7344 65.4961C34.9219 63.7207 36.1465 62.2148 37.8516 61.6699C64.834 52.9863 136.816 25.5938 145.74 3.4336C146.414 1.75782 148.02 0.644534 149.824 0.597659C151.588 0.515628 153.287 1.57617 154.049 3.2168C163.834 24.2344 236.033 52.5762 263.027 61.7168C264.773 62.3086 265.986 63.9023 266.098 65.7422C276.17 237.92 175.389 294.855 155.127 298.934C153.92 299.168 152.385 299.414 150.709 299.414ZM43.4531 69.3633C40.834 98.1094 32.5195 252.129 149.186 290.156C150.416 290.566 152.139 290.285 153.334 290.045C171.164 286.459 265.447 230.537 257.215 69.2871C240.1 63.3398 170.9 38.1797 150.146 13.5645C130.248 39.3984 60.5039 63.7148 43.4531 69.3633Z" fill="black"></path> <path d="M152.521 269.465C151.367 269.465 150.125 269.318 148.877 268.914C49.8711 236.646 61.0742 104.184 62.6738 89.1836C62.8613 87.4082 64.0859 85.9024 65.791 85.3574C86.3164 78.7539 141.061 57.9707 147.74 41.3828C148.414 39.707 150.02 38.5938 151.824 38.5469C153.588 38.4648 155.287 39.5254 156.049 41.166C163.379 56.9219 218.322 78.4375 238.871 85.4043C240.617 85.9961 241.83 87.5898 241.941 89.4297C249.688 222.016 171.775 265.914 156.113 269.066C155.135 269.26 153.893 269.465 152.521 269.465ZM71.3984 93.0449C69.3535 116.582 64.0098 231.73 151.689 260.307C152.463 260.576 153.869 260.283 154.332 260.189C167.82 257.477 239.006 215.143 233.053 92.9688C219.102 88.0879 168.969 69.6426 152.129 51.1563C135.887 70.5391 85.3086 88.4043 71.3984 93.0449Z" fill="#02C39A"></path> <path d="M150.521 265.465C149.367 265.465 148.125 265.318 146.877 264.914C47.8711 232.646 59.0742 100.184 60.6738 85.1836C60.8613 83.4082 62.0859 81.9024 63.791 81.3574C84.3164 74.7539 139.061 53.9707 145.74 37.3828C146.414 35.707 148.02 34.5938 149.824 34.5469C151.588 34.4648 153.287 35.5254 154.049 37.166C161.379 52.9219 216.322 74.4375 236.871 81.4043C238.617 81.9961 239.83 83.5898 239.941 85.4297C247.688 218.016 169.775 261.914 154.113 265.066C153.135 265.26 151.893 265.465 150.521 265.465ZM69.3984 89.0449C67.3535 112.582 62.0098 227.73 149.689 256.307C150.463 256.576 151.869 256.283 152.332 256.189C165.82 253.477 237.006 211.143 231.053 88.9688C217.102 84.0879 166.969 65.6426 150.129 47.1563C133.887 66.5391 83.3086 84.4043 69.3984 89.0449Z" fill="black"></path> <path d="M210.305 154.535H89.5664C87.0645 154.535 85.0371 152.508 85.0371 150.006C85.0371 147.504 87.0645 145.477 89.5664 145.477H210.305C212.807 145.477 214.834 147.504 214.834 150.006C214.834 152.508 212.807 154.535 210.305 154.535Z" fill="black"></path> </svg> 