<svg width="200" height="200" viewBox="0 0 200 200" fill="none" xmlns="http://www.w3.org/2000/svg">
<g clip-path="url(#clip0_3676_1888)">
<path d="M66.6697 41.0014L98.4952 9.17596C99.3295 8.34182 100.677 8.34182 101.51 9.17596L133.336 41.0014C134.17 41.8356 135.261 42.2633 136.352 42.2633C137.443 42.2633 138.533 41.8569 139.368 41.0014C141.036 39.3332 141.036 36.6169 139.368 34.9486L107.564 3.12313C103.393 -1.04755 96.6133 -1.04755 92.4424 3.12313L60.6168 34.9486C58.9487 36.6169 58.9487 39.3332 60.6168 41.0014C62.2851 42.6697 65.0014 42.6697 66.6697 41.0014Z" fill="#06435B"/>
<path d="M133.336 159.001L101.51 190.827C100.677 191.661 99.3295 191.661 98.4952 190.827L66.6697 159.001C65.0014 157.332 62.2851 157.332 60.6168 159.001C58.9487 160.67 58.9487 163.386 60.6168 165.053L92.4424 196.879C94.517 198.954 97.2762 200.002 99.9924 200.002C102.709 200.002 105.468 198.954 107.543 196.879L139.368 165.053C141.036 163.386 141.036 160.67 139.368 159.001C137.721 157.332 135.005 157.332 133.336 159.001Z" fill="#06435B"/>
<path d="M41.0016 66.6674C42.6699 64.9991 42.6699 62.2828 41.0016 60.6145C39.3334 58.9462 36.6171 58.9462 34.9489 60.6145L3.12336 92.44C-1.04732 96.6104 -1.04732 103.39 3.12336 107.562L34.9489 139.387C35.783 140.221 36.8737 140.649 37.9646 140.649C39.0553 140.649 40.1461 140.243 40.9803 139.387C42.6486 137.719 42.6486 135.002 40.9803 133.334L9.17619 101.508C8.34205 100.674 8.34205 99.3266 9.17619 98.4933L41.0016 66.6674Z" fill="#06435B"/>
<path d="M158.999 133.334C157.33 135.002 157.33 137.719 158.999 139.387C159.832 140.221 160.924 140.649 162.014 140.649C163.105 140.649 164.196 140.243 165.03 139.387L196.855 107.562C201.026 103.39 201.026 96.6104 196.855 92.44L165.051 60.6145C163.383 58.9462 160.666 58.9462 158.999 60.6145C157.33 62.2828 157.33 64.9991 158.999 66.6674L190.824 98.4933C191.658 99.3266 191.658 100.674 190.824 101.508L158.999 133.334Z" fill="#06435B"/>
<rect x="48" y="100" width="73.72" height="73.72" rx="5" transform="rotate(-45 48 100)" stroke="#06435B" stroke-width="8"/>
</g>
<defs>
<clipPath id="clip0_3676_1888">
<rect width="200" height="200" fill="white"/>
</clipPath>
</defs>
</svg>
