<svg width="300" height="300" viewBox="0 0 300 300" fill="none" xmlns="http://www.w3.org/2000/svg">
<g clip-path="url(#clip0)">
<path d="M279.746 55.5873L14.0051 158.084C-4.13217 165.361 -4.0246 175.477 10.6991 179.988L76.9756 200.674L102.335 278.423C105.417 286.932 103.898 290.307 112.834 290.307C119.73 290.307 122.789 287.163 126.63 283.411C129.072 281.021 143.574 266.922 159.766 251.179L228.706 302.115C241.392 309.114 250.552 305.488 253.711 290.333L298.964 77.0798C303.598 58.5044 291.883 50.0787 279.746 55.5873ZM87.377 195.922L236.765 101.672C244.222 97.1493 251.06 99.5809 245.446 104.564L117.531 219.976L112.55 273.098L87.377 195.922V195.922Z" fill="white"/>
</g>
<defs>
<clipPath id="clip0">
<rect width="300" height="300" fill="white"/>
</clipPath>
</defs>
</svg>
