<svg width="300" height="300" viewBox="0 0 300 300" fill="none" xmlns="http://www.w3.org/2000/svg">
<rect width="300" height="300" rx="150" fill="#0088CC"/>
<g clip-path="url(#clip0)">
<path d="M213.59 87.3142L63.8895 145.054C53.6722 149.153 53.7328 154.852 62.0272 157.393L99.3629 169.046L113.648 212.845C115.385 217.639 114.529 219.54 119.563 219.54C123.448 219.54 125.171 217.769 127.335 215.655C128.711 214.309 136.88 206.366 146.002 197.497L184.838 226.191C191.984 230.134 197.144 228.092 198.924 219.554L224.417 99.4216C227.027 88.9575 220.427 84.211 213.59 87.3142ZM105.222 166.369L189.377 113.275C193.578 110.727 197.43 112.097 194.268 114.905L122.209 179.92L119.403 209.845L105.222 166.369V166.369Z" fill="white"/>
</g>
<defs>
<clipPath id="clip0">
<rect width="169" height="169" fill="white" transform="translate(56 56)"/>
</clipPath>
</defs>
</svg>
