<svg width="300" height="300" viewBox="0 0 300 300" fill="none" xmlns="http://www.w3.org/2000/svg">
<path d="M290.186 94.9224C292.432 101.172 285.107 115.528 268.213 137.989C265.869 141.114 262.695 145.264 258.691 150.44C254.785 155.42 252.1 158.936 250.635 160.987C249.17 163.038 247.681 165.455 246.167 168.238C244.653 171.021 244.067 173.072 244.409 174.39C244.751 175.709 245.386 177.393 246.313 179.444C247.241 181.495 248.828 183.594 251.074 185.743C253.32 187.891 256.104 190.479 259.424 193.506C259.814 193.702 260.059 193.897 260.156 194.092C273.926 206.885 283.252 217.676 288.135 226.465C288.428 226.954 288.745 227.564 289.087 228.296C289.429 229.029 289.771 230.323 290.112 232.178C290.454 234.034 290.43 235.694 290.039 237.159C289.648 238.624 288.428 239.966 286.377 241.187C284.326 242.408 281.445 243.018 277.734 243.018L240.234 243.604C237.891 244.092 235.156 243.848 232.031 242.872C228.906 241.895 226.367 240.821 224.414 239.649L221.484 237.891C218.555 235.84 215.137 232.715 211.23 228.516C207.324 224.317 203.979 220.533 201.196 217.164C198.413 213.795 195.435 210.962 192.261 208.668C189.087 206.373 186.328 205.616 183.984 206.397C183.691 206.495 183.301 206.666 182.812 206.91C182.324 207.154 181.494 207.862 180.322 209.034C179.15 210.206 178.101 211.646 177.173 213.355C176.245 215.064 175.415 217.603 174.683 220.972C173.95 224.341 173.633 228.126 173.73 232.325C173.73 233.79 173.56 235.132 173.218 236.353C172.876 237.574 172.51 238.477 172.119 239.063L171.533 239.795C169.775 241.651 167.188 242.725 163.77 243.018H146.924C139.99 243.409 132.861 242.603 125.537 240.601C118.213 238.599 111.792 236.011 106.274 232.837C100.757 229.664 95.7275 226.441 91.1865 223.17C86.6455 219.898 83.2031 217.09 80.8594 214.747L77.1973 211.231C76.2207 210.254 74.8779 208.79 73.1689 206.836C71.46 204.883 67.9688 200.44 62.6953 193.506C57.4219 186.573 52.2461 179.2 47.168 171.387C42.0898 163.575 36.1084 153.272 29.2236 140.479C22.3389 127.686 15.9668 114.405 10.1074 100.635C9.52148 99.0728 9.22852 97.7544 9.22852 96.6802C9.22852 95.606 9.375 94.8248 9.66797 94.3365L10.2539 93.4576C11.7188 91.6021 14.502 90.6744 18.6035 90.6744L58.7402 90.3814C59.9121 90.5767 61.0352 90.8941 62.1094 91.3335C63.1836 91.773 63.9648 92.188 64.4531 92.5787L65.1855 93.0181C66.748 94.0923 67.9199 95.6548 68.7012 97.7056C70.6543 102.588 72.9004 107.642 75.4395 112.867C77.9785 118.091 79.9805 122.071 81.4453 124.805L83.7891 129.053C86.6211 134.913 89.3555 139.991 91.9922 144.288C94.6289 148.585 96.9971 151.929 99.0967 154.322C101.196 156.714 103.223 158.594 105.176 159.961C107.129 161.329 108.789 162.012 110.156 162.012C111.523 162.012 112.842 161.768 114.111 161.28C114.307 161.182 114.551 160.938 114.844 160.547C115.137 160.157 115.723 159.083 116.602 157.325C117.48 155.567 118.14 153.272 118.579 150.44C119.019 147.608 119.482 143.653 119.971 138.575C120.459 133.497 120.459 127.393 119.971 120.264C119.775 116.358 119.336 112.794 118.652 109.571C117.969 106.348 117.285 104.102 116.602 102.833L115.723 101.075C113.281 97.7544 109.131 95.6548 103.271 94.7759C102.002 94.5806 102.246 93.4087 104.004 91.2603C105.566 89.4048 107.422 87.94 109.57 86.8658C114.746 84.3267 126.416 83.1548 144.58 83.3501C152.588 83.4478 159.18 84.0826 164.355 85.2544C166.309 85.7427 167.944 86.4019 169.263 87.232C170.581 88.0621 171.582 89.2339 172.266 90.7476C172.949 92.2613 173.462 93.8238 173.804 95.4351C174.146 97.0464 174.316 99.2681 174.316 102.1C174.316 104.932 174.268 107.618 174.17 110.157C174.072 112.696 173.95 116.138 173.804 120.484C173.657 124.83 173.584 128.858 173.584 132.569C173.584 133.643 173.535 135.694 173.438 138.721C173.34 141.749 173.315 144.092 173.364 145.752C173.413 147.413 173.584 149.39 173.877 151.685C174.17 153.98 174.731 155.884 175.562 157.398C176.392 158.912 177.49 160.108 178.857 160.987C179.639 161.182 180.469 161.378 181.348 161.573C182.227 161.768 183.496 161.231 185.156 159.961C186.816 158.692 188.672 157.007 190.723 154.908C192.773 152.808 195.313 149.537 198.34 145.093C201.367 140.65 204.688 135.401 208.301 129.346C214.16 119.19 219.385 108.204 223.975 96.3873C224.365 95.4107 224.854 94.5562 225.439 93.8238C226.025 93.0914 226.563 92.5787 227.051 92.2857L227.637 91.8462L228.369 91.48L230.273 91.0406L233.203 90.9673L275.391 90.6744C279.199 90.1861 282.324 90.3082 284.766 91.0406C287.207 91.773 288.721 92.5787 289.307 93.4576L290.186 94.9224Z" fill="#597DA3"/>
</svg>
