<svg width="100" height="100" viewBox="0 0 100 100" fill="none" xmlns="http://www.w3.org/2000/svg">
<path d="M40.8663 10C42.1081 10 43.1148 11.0061 43.1148 12.2472V42.9264C43.1148 44.1675 44.1216 45.1736 45.3634 45.1736H84.4593C85.7011 45.1736 86.7079 46.1797 86.7079 47.4208V56.5253C86.7079 56.5292 86.7047 56.5323 86.7009 56.5323C86.6971 56.5323 86.694 56.5353 86.6939 56.5391C86.5536 60.939 85.2572 65.2077 82.9205 68.9308C81.0054 71.9824 78.459 74.5737 75.4663 76.5357C74.7981 76.9738 74.3695 77.7059 74.3695 78.5046V87.7528C74.3695 88.9939 73.3627 90 72.1209 90H29.5136C28.2718 90 27.2651 88.9939 27.2651 87.7528V77.3759C27.2651 74.3977 26.2039 71.5065 24.2768 69.2347L17.1164 60.7934C14.4618 57.664 13 53.6815 13 49.5791V12.2472C13 11.0061 14.0067 10 15.2486 10H40.8663ZM81.9523 50.8533C81.9523 50.3415 81.5371 49.9266 81.0251 49.9266H44.0421C43.53 49.9266 43.1148 50.3415 43.1148 50.8533C43.1148 51.3651 43.53 51.7799 44.0421 51.7799H81.0251C81.5371 51.7799 81.9523 51.3651 81.9523 50.8533ZM17.7553 49.5794C17.7553 52.5574 18.8164 55.4487 20.7435 57.7204L27.9039 66.1616C30.5585 69.2908 32.0203 73.2733 32.0203 77.376V83.0004C32.0203 84.2415 33.0271 85.2476 34.2689 85.2476H67.365C68.6068 85.2476 69.6136 84.2415 69.6136 83.0004V75.7258C69.6136 74.8792 70.0897 74.1044 70.8453 73.7216L70.9161 73.6857C76.7803 70.7145 80.7311 65.1993 81.7131 58.8565C81.9081 57.5964 80.8756 56.5325 79.5997 56.5325H40.6077C39.3658 56.5325 38.3591 55.5264 38.3591 54.2853V23.6059C38.3591 22.3648 37.3524 21.3587 36.1105 21.3587H20.0038C18.762 21.3587 17.7553 22.3648 17.7553 23.6059V49.5794ZM17.7553 16.606H37.432C37.9441 16.606 38.3592 16.1911 38.3592 15.6793C38.3592 15.1676 37.9441 14.7527 37.432 14.7527H18.6826C18.1706 14.7527 17.7554 15.1676 17.7554 15.6793L17.7553 16.606V16.606Z" fill="#06435B"/>
</svg>
