<svg width="300" height="300" viewBox="0 0 300 300" fill="none" xmlns="http://www.w3.org/2000/svg">
<rect width="300" height="300" rx="150" fill="#43D854"/>
<path d="M240 147.6C240 196 200.4 235.2 151.6 235.2C136.2 235.2 121.6 231.2 108.8 224.2L60 240L76 193C68 179.8 63.4 164.2 63.4 147.8C63.2 99.2 102.8 60 151.6 60C200.4 60 240 99.2 240 147.6ZM151.6 74C110.6 74 77.4 107 77.4 147.6C77.4 163.8 82.6 178.6 91.6 190.8L82.4 218.2L111 209.2C122.8 217 136.8 221.4 151.8 221.4C192.6 221.4 226 188.4 226 147.6C226 106.8 192.6 74 151.6 74ZM196.2 167.8C195.6 167 194.2 166.4 192 165.2C189.8 164.2 179.2 159 177.2 158.2C175.2 157.4 173.8 157.2 172.4 159.2C171 161.4 166.8 166.2 165.6 167.6C164.4 169 163 169.2 161 168.2C158.8 167.2 151.8 164.8 143.6 157.6C137.2 152 132.8 144.8 131.6 142.8C130.4 140.6 131.4 139.4 132.6 138.4C133.6 137.4 134.8 135.8 135.8 134.6C136.8 133.4 137.2 132.4 138 131C138.8 129.6 138.4 128.4 137.8 127.2C137.2 126.2 133 115.6 131.2 111.2C129.4 107 127.6 107.6 126.4 107.6C125.2 107.6 123.6 107.4 122.2 107.4C120.8 107.4 118.4 108 116.4 110C114.4 112.2 108.8 117.4 108.8 128C108.8 138.6 116.6 148.8 117.6 150.2C118.6 151.6 132.6 174 154.6 182.6C176.6 191.2 176.6 188.4 180.6 188C184.6 187.6 193.4 182.8 195.2 177.8C196.8 173 196.8 168.8 196.2 167.8Z" fill="white"/>
</svg>
