<svg width="300" height="300" viewBox="0 0 300 300" fill="none" xmlns="http://www.w3.org/2000/svg">
<path d="M300 146C300 226.667 234 292 152.667 292C127 292 102.667 285.333 81.3333 273.667L0 300L26.6667 221.667C13.3333 199.667 5.66667 173.667 5.66667 146.333C5.33333 65.3333 71.3333 0 152.667 0C234 0 300 65.3333 300 146ZM152.667 23.3333C84.3333 23.3333 29 78.3333 29 146C29 173 37.6667 197.667 52.6667 218L37.3333 263.667L85 248.667C104.667 261.667 128 269 153 269C221 269 276.667 214 276.667 146C276.667 78 221 23.3333 152.667 23.3333ZM227 179.667C226 178.333 223.667 177.333 220 175.333C216.333 173.667 198.667 165 195.333 163.667C192 162.333 189.667 162 187.333 165.333C185 169 178 177 176 179.333C174 181.667 171.667 182 168.333 180.333C164.667 178.667 153 174.667 139.333 162.667C128.667 153.333 121.333 141.333 119.333 138C117.333 134.333 119 132.333 121 130.667C122.667 129 124.667 126.333 126.333 124.333C128 122.333 128.667 120.667 130 118.333C131.333 116 130.667 114 129.667 112C128.667 110.333 121.667 92.6667 118.667 85.3333C115.667 78.3333 112.667 79.3333 110.667 79.3333C108.667 79.3333 106 79 103.667 79C101.333 79 97.3333 80 94 83.3333C90.6667 87 81.3333 95.6667 81.3333 113.333C81.3333 131 94.3333 148 96 150.333C97.6667 152.667 121 190 157.667 204.333C194.333 218.667 194.333 214 201 213.333C207.667 212.667 222.333 204.667 225.333 196.333C228 188.333 228 181.333 227 179.667Z" fill="white"/>
</svg>
