<svg width="300" height="300" viewBox="0 0 300 300" fill="none" xmlns="http://www.w3.org/2000/svg">
<path fill-rule="evenodd" clip-rule="evenodd" d="M284.991 54.2812C293.981 63.9937 296.906 86.0531 296.906 86.0531C296.906 86.0531 299.906 111.937 299.906 137.831V162.094C299.906 187.988 296.906 213.872 296.906 213.872C296.906 213.872 293.972 235.922 284.991 245.616C274.705 257.093 263.306 258.284 256.868 258.957C256.165 259.031 255.521 259.098 254.944 259.172C212.972 262.387 149.953 262.5 149.953 262.5C149.953 262.5 71.9719 261.741 47.9813 259.284C46.8458 259.058 45.4702 258.881 43.9128 258.681C36.3153 257.704 24.3919 256.172 14.9156 245.606C5.925 235.913 3 213.863 3 213.863C3 213.863 0 187.988 0 162.084V137.822C0 111.938 3 86.0531 3 86.0531C3 86.0531 5.93437 63.9937 14.9156 54.2812C25.2467 42.7627 36.6829 41.6041 43.1072 40.9533C43.7836 40.8848 44.4044 40.8219 44.9625 40.7531C86.925 37.5 149.878 37.5 149.878 37.5H150.019C150.019 37.5 212.972 37.5 254.944 40.7531C255.502 40.8219 256.123 40.8848 256.8 40.9534C263.226 41.6042 274.668 42.7632 284.991 54.2812ZM206.25 150L112.5 206.25V93.75L206.25 150Z" fill="#C4302B"/>
</svg>
